<?xml version="1.0" encoding="UTF-8" standalone="no"?><svg xmlns="http://www.w3.org/2000/svg" xmlns:xlink="http://www.w3.org/1999/xlink" clip-rule="evenodd" stroke-miterlimit="10" viewBox="0 0 1024 768"><desc>SVG generated by Keynote</desc><defs></defs><g transform="matrix(1.00, 0.00, -0.00, -1.00, 0.0, 768.0)"><path d="M 0.0 768.0 L 1024.0 768.0 L 1024.0 0.0 L 0.0 0.0 Z M 0.0 768.0 " fill="#FEFFFF"></path><text xml:space="preserve" font-family="HelveticaNeue-Light,Helvetica Neue" font-size="71.2" fill="#000000" transform="matrix(1.00, 0.00, -0.00, -1.00, 80.8, 621.2)">l</text><text xml:space="preserve" font-family="HelveticaNeue-Light,Helvetica Neue" font-size="71.2" fill="#000000" transform="matrix(1.00, 0.00, -0.00, -1.00, 94.0, 621.2)">i</text><text xml:space="preserve" font-family="HelveticaNeue-Light,Helvetica Neue" font-size="71.2" fill="#000000" transform="matrix(1.00, 0.00, -0.00, -1.00, 107.2, 621.2)">f</text><text xml:space="preserve" font-family="HelveticaNeue-Light,Helvetica Neue" font-size="71.2" fill="#000000" transform="matrix(1.00, 0.00, -0.00, -1.00, 125.6, 621.2)">e</text><text xml:space="preserve" font-family="HelveticaNeue-Light,Helvetica Neue" font-size="71.2" fill="#000000" transform="matrix(1.00, 0.00, -0.00, -1.00, 162.6, 621.2)"> </text><text xml:space="preserve" font-family="HelveticaNeue-Light,Helvetica Neue" font-size="71.2" fill="#000000" transform="matrix(1.00, 0.00, -0.00, -1.00, 182.3, 621.2)">i</text><text xml:space="preserve" font-family="HelveticaNeue-Light,Helvetica Neue" font-size="71.2" fill="#000000" transform="matrix(1.00, 0.00, -0.00, -1.00, 195.5, 621.2)">s</text><text xml:space="preserve" font-family="HelveticaNeue-Light,Helvetica Neue" font-size="71.2" fill="#000000" transform="matrix(1.00, 0.00, -0.00, -1.00, 229.8, 621.2)"> </text><text xml:space="preserve" font-family="HelveticaNeue-Light,Helvetica Neue" font-size="71.2" fill="#000000" transform="matrix(1.00, 0.00, -0.00, -1.00, 249.6, 621.2)">h</text><text xml:space="preserve" font-family="HelveticaNeue-Light,Helvetica Neue" font-size="71.2" fill="#000000" transform="matrix(1.00, 0.00, -0.00, -1.00, 287.8, 621.2)">a</text><text xml:space="preserve" font-family="HelveticaNeue-Light,Helvetica Neue" font-size="71.2" fill="#000000" transform="matrix(1.00, 0.00, -0.00, -1.00, 324.7, 621.2)">p</text><text xml:space="preserve" font-family="HelveticaNeue-Light,Helvetica Neue" font-size="71.2" fill="#000000" transform="matrix(1.00, 0.00, -0.00, -1.00, 365.6, 621.2)">p</text><text xml:space="preserve" font-family="HelveticaNeue-Light,Helvetica Neue" font-size="71.2" fill="#000000" transform="matrix(1.00, 0.00, -0.00, -1.00, 406.5, 621.2)">i</text><text xml:space="preserve" font-family="HelveticaNeue-Light,Helvetica Neue" font-size="71.2" fill="#000000" transform="matrix(1.00, 0.00, -0.00, -1.00, 419.7, 621.2)">e</text><text xml:space="preserve" font-family="HelveticaNeue-Light,Helvetica Neue" font-size="71.2" fill="#000000" transform="matrix(1.00, 0.00, -0.00, -1.00, 456.6, 621.2)">r</text><text xml:space="preserve" font-family="HelveticaNeue-Light,Helvetica Neue" font-size="71.2" fill="#000000" transform="matrix(1.00, 0.00, -0.00, -1.00, 479.0, 621.2)"> </text><text xml:space="preserve" font-family="HelveticaNeue-Light,Helvetica Neue" font-size="71.2" fill="#000000" transform="matrix(1.00, 0.00, -0.00, -1.00, 498.8, 621.2)">w</text><text xml:space="preserve" font-family="HelveticaNeue-Light,Helvetica Neue" font-size="71.2" fill="#000000" transform="matrix(1.00, 0.00, -0.00, -1.00, 551.6, 621.2)">i</text><text xml:space="preserve" font-family="HelveticaNeue-Light,Helvetica Neue" font-size="71.2" fill="#000000" transform="matrix(1.00, 0.00, -0.00, -1.00, 564.8, 621.2)">t</text><text xml:space="preserve" font-family="HelveticaNeue-Light,Helvetica Neue" font-size="71.2" fill="#000000" transform="matrix(1.00, 0.00, -0.00, -1.00, 585.8, 621.2)">h</text><text xml:space="preserve" font-family="HelveticaNeue-Light,Helvetica Neue" font-size="71.2" fill="#000000" transform="matrix(1.00, 0.00, -0.00, -1.00, 624.1, 621.2)"> </text><text xml:space="preserve" font-family="HelveticaNeue-Light,Helvetica Neue" font-size="71.2" fill="#000000" transform="matrix(1.00, 0.00, -0.00, -1.00, 643.9, 621.2)">f</text><text xml:space="preserve" font-family="HelveticaNeue-Light,Helvetica Neue" font-size="71.2" fill="#000000" transform="matrix(1.00, 0.00, -0.00, -1.00, 662.3, 621.2)">o</text><text xml:space="preserve" font-family="HelveticaNeue-Light,Helvetica Neue" font-size="71.2" fill="#000000" transform="matrix(1.00, 0.00, -0.00, -1.00, 701.9, 621.2)">n</text><text xml:space="preserve" font-family="HelveticaNeue-Light,Helvetica Neue" font-size="71.2" fill="#000000" transform="matrix(1.00, 0.00, -0.00, -1.00, 740.1, 621.2)">t</text><text xml:space="preserve" font-family="HelveticaNeue-Light,Helvetica Neue" font-size="71.2" fill="#000000" transform="matrix(1.00, 0.00, -0.00, -1.00, 761.2, 621.2)"> </text><text xml:space="preserve" font-family="HelveticaNeue-Light,Helvetica Neue" font-size="71.2" fill="#000000" transform="matrix(1.00, 0.00, -0.00, -1.00, 781.0, 621.2)">i</text><text xml:space="preserve" font-family="HelveticaNeue-Light,Helvetica Neue" font-size="71.2" fill="#000000" transform="matrix(1.00, 0.00, -0.00, -1.00, 794.2, 621.2)">c</text><text xml:space="preserve" font-family="HelveticaNeue-Light,Helvetica Neue" font-size="71.2" fill="#000000" transform="matrix(1.00, 0.00, -0.00, -1.00, 831.1, 621.2)">o</text><text xml:space="preserve" font-family="HelveticaNeue-Light,Helvetica Neue" font-size="71.2" fill="#000000" transform="matrix(1.00, 0.00, -0.00, -1.00, 870.7, 621.2)">n</text><text xml:space="preserve" font-family="HelveticaNeue-Light,Helvetica Neue" font-size="71.2" fill="#000000" transform="matrix(1.00, 0.00, -0.00, -1.00, 908.9, 621.2)">s</text></g></svg>