<?xml version="1.0" encoding="UTF-8" standalone="no"?><svg xmlns="http://www.w3.org/2000/svg" xmlns:xlink="http://www.w3.org/1999/xlink" clip-rule="evenodd" stroke-miterlimit="10" viewBox="0 0 626 119"><desc>SVG generated by Keynote</desc><defs></defs><g transform="matrix(1.00, 0.00, -0.00, -1.00, 0.0, 119.0)"><text xml:space="preserve" font-family="HelveticaNeue-Thin,Helvetica Neue" font-size="27.0" fill="#000000" transform="matrix(1.00, 0.00, -0.00, -1.00, 0.0, 92.4)">•</text><text xml:space="preserve" font-family="HelveticaNeue-Thin,Helvetica Neue" font-size="36.0" fill="#000000" transform="matrix(1.00, 0.00, -0.00, -1.00, 35.0, 89.0)">6</text><text xml:space="preserve" font-family="HelveticaNeue-Thin,Helvetica Neue" font-size="36.0" fill="#000000" transform="matrix(1.00, 0.00, -0.00, -1.00, 55.0, 89.0)">0</text><text xml:space="preserve" font-family="HelveticaNeue-Thin,Helvetica Neue" font-size="36.0" fill="#000000" transform="matrix(1.00, 0.00, -0.00, -1.00, 75.0, 89.0)">-</text><text xml:space="preserve" font-family="HelveticaNeue-Thin,Helvetica Neue" font-size="36.0" fill="#000000" transform="matrix(1.00, 0.00, -0.00, -1.00, 87.7, 89.0)">7</text><text xml:space="preserve" font-family="HelveticaNeue-Thin,Helvetica Neue" font-size="36.0" fill="#000000" transform="matrix(1.00, 0.00, -0.00, -1.00, 107.7, 89.0)">5</text><text xml:space="preserve" font-family="HelveticaNeue-Thin,Helvetica Neue" font-size="36.0" fill="#000000" transform="matrix(1.00, 0.00, -0.00, -1.00, 127.7, 89.0)"> </text><text xml:space="preserve" font-family="HelveticaNeue-Thin,Helvetica Neue" font-size="36.0" fill="#000000" transform="matrix(1.00, 0.00, -0.00, -1.00, 137.7, 89.0)">c</text><text xml:space="preserve" font-family="HelveticaNeue-Thin,Helvetica Neue" font-size="36.0" fill="#000000" transform="matrix(1.00, 0.00, -0.00, -1.00, 156.4, 89.0)">h</text><text xml:space="preserve" font-family="HelveticaNeue-Thin,Helvetica Neue" font-size="36.0" fill="#000000" transform="matrix(1.00, 0.00, -0.00, -1.00, 175.1, 89.0)">a</text><text xml:space="preserve" font-family="HelveticaNeue-Thin,Helvetica Neue" font-size="36.0" fill="#000000" transform="matrix(1.00, 0.00, -0.00, -1.00, 193.1, 89.0)">r</text><text xml:space="preserve" font-family="HelveticaNeue-Thin,Helvetica Neue" font-size="36.0" fill="#000000" transform="matrix(1.00, 0.00, -0.00, -1.00, 202.4, 89.0)">a</text><text xml:space="preserve" font-family="HelveticaNeue-Thin,Helvetica Neue" font-size="36.0" fill="#000000" transform="matrix(1.00, 0.00, -0.00, -1.00, 220.4, 89.0)">c</text><text xml:space="preserve" font-family="HelveticaNeue-Thin,Helvetica Neue" font-size="36.0" fill="#000000" transform="matrix(1.00, 0.00, -0.00, -1.00, 239.1, 89.0)">t</text><text xml:space="preserve" font-family="HelveticaNeue-Thin,Helvetica Neue" font-size="36.0" fill="#000000" transform="matrix(1.00, 0.00, -0.00, -1.00, 247.9, 89.0)">e</text><text xml:space="preserve" font-family="HelveticaNeue-Thin,Helvetica Neue" font-size="36.0" fill="#000000" transform="matrix(1.00, 0.00, -0.00, -1.00, 266.6, 89.0)">r</text><text xml:space="preserve" font-family="HelveticaNeue-Thin,Helvetica Neue" font-size="36.0" fill="#000000" transform="matrix(1.00, 0.00, -0.00, -1.00, 276.6, 89.0)">s</text><text xml:space="preserve" font-family="HelveticaNeue-Thin,Helvetica Neue" font-size="36.0" fill="#000000" transform="matrix(1.00, 0.00, -0.00, -1.00, 293.9, 89.0)">/</text><text xml:space="preserve" font-family="HelveticaNeue-Thin,Helvetica Neue" font-size="36.0" fill="#000000" transform="matrix(1.00, 0.00, -0.00, -1.00, 305.9, 89.0)">l</text><text xml:space="preserve" font-family="HelveticaNeue-Thin,Helvetica Neue" font-size="36.0" fill="#000000" transform="matrix(1.00, 0.00, -0.00, -1.00, 311.9, 89.0)">i</text><text xml:space="preserve" font-family="HelveticaNeue-Thin,Helvetica Neue" font-size="36.0" fill="#000000" transform="matrix(1.00, 0.00, -0.00, -1.00, 318.0, 89.0)">n</text><text xml:space="preserve" font-family="HelveticaNeue-Thin,Helvetica Neue" font-size="36.0" fill="#000000" transform="matrix(1.00, 0.00, -0.00, -1.00, 336.7, 89.0)">e</text><text xml:space="preserve" font-family="HelveticaNeue-Thin,Helvetica Neue" font-size="36.0" fill="#000000" transform="matrix(1.00, 0.00, -0.00, -1.00, 355.4, 89.0)"> </text><text xml:space="preserve" font-family="HelveticaNeue-Thin,Helvetica Neue" font-size="36.0" fill="#000000" transform="matrix(1.00, 0.00, -0.00, -1.00, 365.4, 89.0)">o</text><text xml:space="preserve" font-family="HelveticaNeue-Thin,Helvetica Neue" font-size="36.0" fill="#000000" transform="matrix(1.00, 0.00, -0.00, -1.00, 384.7, 89.0)">n</text><text xml:space="preserve" font-family="HelveticaNeue-Thin,Helvetica Neue" font-size="36.0" fill="#000000" transform="matrix(1.00, 0.00, -0.00, -1.00, 403.4, 89.0)"> </text><text xml:space="preserve" font-family="HelveticaNeue-Thin,Helvetica Neue" font-size="36.0" fill="#000000" transform="matrix(1.00, 0.00, -0.00, -1.00, 413.4, 89.0)">l</text><text xml:space="preserve" font-family="HelveticaNeue-Thin,Helvetica Neue" font-size="36.0" fill="#000000" transform="matrix(1.00, 0.00, -0.00, -1.00, 419.4, 89.0)">a</text><text xml:space="preserve" font-family="HelveticaNeue-Thin,Helvetica Neue" font-size="36.0" fill="#000000" transform="matrix(1.00, 0.00, -0.00, -1.00, 437.4, 89.0)">r</text><text xml:space="preserve" font-family="HelveticaNeue-Thin,Helvetica Neue" font-size="36.0" fill="#000000" transform="matrix(1.00, 0.00, -0.00, -1.00, 447.0, 89.0)">g</text><text xml:space="preserve" font-family="HelveticaNeue-Thin,Helvetica Neue" font-size="36.0" fill="#000000" transform="matrix(1.00, 0.00, -0.00, -1.00, 466.4, 89.0)">e</text><text xml:space="preserve" font-family="HelveticaNeue-Thin,Helvetica Neue" font-size="36.0" fill="#000000" transform="matrix(1.00, 0.00, -0.00, -1.00, 485.0, 89.0)">r</text><text xml:space="preserve" font-family="HelveticaNeue-Thin,Helvetica Neue" font-size="36.0" fill="#000000" transform="matrix(1.00, 0.00, -0.00, -1.00, 495.0, 89.0)"> </text><text xml:space="preserve" font-family="HelveticaNeue-Thin,Helvetica Neue" font-size="36.0" fill="#000000" transform="matrix(1.00, 0.00, -0.00, -1.00, 505.1, 89.0)">s</text><text xml:space="preserve" font-family="HelveticaNeue-Thin,Helvetica Neue" font-size="36.0" fill="#000000" transform="matrix(1.00, 0.00, -0.00, -1.00, 522.4, 89.0)">c</text><text xml:space="preserve" font-family="HelveticaNeue-Thin,Helvetica Neue" font-size="36.0" fill="#000000" transform="matrix(1.00, 0.00, -0.00, -1.00, 541.1, 89.0)">r</text><text xml:space="preserve" font-family="HelveticaNeue-Thin,Helvetica Neue" font-size="36.0" fill="#000000" transform="matrix(1.00, 0.00, -0.00, -1.00, 550.6, 89.0)">e</text><text xml:space="preserve" font-family="HelveticaNeue-Thin,Helvetica Neue" font-size="36.0" fill="#000000" transform="matrix(1.00, 0.00, -0.00, -1.00, 569.3, 89.0)">e</text><text xml:space="preserve" font-family="HelveticaNeue-Thin,Helvetica Neue" font-size="36.0" fill="#000000" transform="matrix(1.00, 0.00, -0.00, -1.00, 588.0, 89.0)">n</text><text xml:space="preserve" font-family="HelveticaNeue-Thin,Helvetica Neue" font-size="36.0" fill="#000000" transform="matrix(1.00, 0.00, -0.00, -1.00, 606.7, 89.0)">s</text><text xml:space="preserve" font-family="HelveticaNeue-Thin,Helvetica Neue" font-size="36.0" fill="#000000" transform="matrix(1.00, 0.00, -0.00, -1.00, 624.0, 89.0)"> </text><text xml:space="preserve" font-family="HelveticaNeue-Thin,Helvetica Neue" font-size="27.0" fill="#000000" transform="matrix(1.00, 0.00, -0.00, -1.00, 0.0, 6.4)">•</text><text xml:space="preserve" font-family="HelveticaNeue-Thin,Helvetica Neue" font-size="36.0" fill="#000000" transform="matrix(1.00, 0.00, -0.00, -1.00, 35.0, 3.0)">3</text><text xml:space="preserve" font-family="HelveticaNeue-Thin,Helvetica Neue" font-size="36.0" fill="#000000" transform="matrix(1.00, 0.00, -0.00, -1.00, 55.0, 3.0)">5</text><text xml:space="preserve" font-family="HelveticaNeue-Thin,Helvetica Neue" font-size="36.0" fill="#000000" transform="matrix(1.00, 0.00, -0.00, -1.00, 75.0, 3.0)">-</text><text xml:space="preserve" font-family="HelveticaNeue-Thin,Helvetica Neue" font-size="36.0" fill="#000000" transform="matrix(1.00, 0.00, -0.00, -1.00, 87.7, 3.0)">4</text><text xml:space="preserve" font-family="HelveticaNeue-Thin,Helvetica Neue" font-size="36.0" fill="#000000" transform="matrix(1.00, 0.00, -0.00, -1.00, 107.7, 3.0)">0</text><text xml:space="preserve" font-family="HelveticaNeue-Thin,Helvetica Neue" font-size="36.0" fill="#000000" transform="matrix(1.00, 0.00, -0.00, -1.00, 127.7, 3.0)"> </text><text xml:space="preserve" font-family="HelveticaNeue-Thin,Helvetica Neue" font-size="36.0" fill="#000000" transform="matrix(1.00, 0.00, -0.00, -1.00, 137.7, 3.0)">c</text><text xml:space="preserve" font-family="HelveticaNeue-Thin,Helvetica Neue" font-size="36.0" fill="#000000" transform="matrix(1.00, 0.00, -0.00, -1.00, 156.4, 3.0)">h</text><text xml:space="preserve" font-family="HelveticaNeue-Thin,Helvetica Neue" font-size="36.0" fill="#000000" transform="matrix(1.00, 0.00, -0.00, -1.00, 175.1, 3.0)">a</text><text xml:space="preserve" font-family="HelveticaNeue-Thin,Helvetica Neue" font-size="36.0" fill="#000000" transform="matrix(1.00, 0.00, -0.00, -1.00, 193.1, 3.0)">r</text><text xml:space="preserve" font-family="HelveticaNeue-Thin,Helvetica Neue" font-size="36.0" fill="#000000" transform="matrix(1.00, 0.00, -0.00, -1.00, 202.4, 3.0)">a</text><text xml:space="preserve" font-family="HelveticaNeue-Thin,Helvetica Neue" font-size="36.0" fill="#000000" transform="matrix(1.00, 0.00, -0.00, -1.00, 220.4, 3.0)">c</text><text xml:space="preserve" font-family="HelveticaNeue-Thin,Helvetica Neue" font-size="36.0" fill="#000000" transform="matrix(1.00, 0.00, -0.00, -1.00, 239.1, 3.0)">t</text><text xml:space="preserve" font-family="HelveticaNeue-Thin,Helvetica Neue" font-size="36.0" fill="#000000" transform="matrix(1.00, 0.00, -0.00, -1.00, 247.9, 3.0)">e</text><text xml:space="preserve" font-family="HelveticaNeue-Thin,Helvetica Neue" font-size="36.0" fill="#000000" transform="matrix(1.00, 0.00, -0.00, -1.00, 266.6, 3.0)">r</text><text xml:space="preserve" font-family="HelveticaNeue-Thin,Helvetica Neue" font-size="36.0" fill="#000000" transform="matrix(1.00, 0.00, -0.00, -1.00, 276.6, 3.0)">s</text><text xml:space="preserve" font-family="HelveticaNeue-Thin,Helvetica Neue" font-size="36.0" fill="#000000" transform="matrix(1.00, 0.00, -0.00, -1.00, 293.9, 3.0)">/</text><text xml:space="preserve" font-family="HelveticaNeue-Thin,Helvetica Neue" font-size="36.0" fill="#000000" transform="matrix(1.00, 0.00, -0.00, -1.00, 305.9, 3.0)">l</text><text xml:space="preserve" font-family="HelveticaNeue-Thin,Helvetica Neue" font-size="36.0" fill="#000000" transform="matrix(1.00, 0.00, -0.00, -1.00, 311.9, 3.0)">i</text><text xml:space="preserve" font-family="HelveticaNeue-Thin,Helvetica Neue" font-size="36.0" fill="#000000" transform="matrix(1.00, 0.00, -0.00, -1.00, 318.0, 3.0)">n</text><text xml:space="preserve" font-family="HelveticaNeue-Thin,Helvetica Neue" font-size="36.0" fill="#000000" transform="matrix(1.00, 0.00, -0.00, -1.00, 336.7, 3.0)">e</text><text xml:space="preserve" font-family="HelveticaNeue-Thin,Helvetica Neue" font-size="36.0" fill="#000000" transform="matrix(1.00, 0.00, -0.00, -1.00, 355.4, 3.0)"> </text><text xml:space="preserve" font-family="HelveticaNeue-Thin,Helvetica Neue" font-size="36.0" fill="#000000" transform="matrix(1.00, 0.00, -0.00, -1.00, 365.4, 3.0)">o</text><text xml:space="preserve" font-family="HelveticaNeue-Thin,Helvetica Neue" font-size="36.0" fill="#000000" transform="matrix(1.00, 0.00, -0.00, -1.00, 384.7, 3.0)">n</text><text xml:space="preserve" font-family="HelveticaNeue-Thin,Helvetica Neue" font-size="36.0" fill="#000000" transform="matrix(1.00, 0.00, -0.00, -1.00, 403.4, 3.0)"> </text><text xml:space="preserve" font-family="HelveticaNeue-Thin,Helvetica Neue" font-size="36.0" fill="#000000" transform="matrix(1.00, 0.00, -0.00, -1.00, 413.4, 3.0)">m</text><text xml:space="preserve" font-family="HelveticaNeue-Thin,Helvetica Neue" font-size="36.0" fill="#000000" transform="matrix(1.00, 0.00, -0.00, -1.00, 442.1, 3.0)">o</text><text xml:space="preserve" font-family="HelveticaNeue-Thin,Helvetica Neue" font-size="36.0" fill="#000000" transform="matrix(1.00, 0.00, -0.00, -1.00, 461.4, 3.0)">b</text><text xml:space="preserve" font-family="HelveticaNeue-Thin,Helvetica Neue" font-size="36.0" fill="#000000" transform="matrix(1.00, 0.00, -0.00, -1.00, 481.4, 3.0)">i</text><text xml:space="preserve" font-family="HelveticaNeue-Thin,Helvetica Neue" font-size="36.0" fill="#000000" transform="matrix(1.00, 0.00, -0.00, -1.00, 487.4, 3.0)">l</text><text xml:space="preserve" font-family="HelveticaNeue-Thin,Helvetica Neue" font-size="36.0" fill="#000000" transform="matrix(1.00, 0.00, -0.00, -1.00, 493.5, 3.0)">e</text></g></svg>