<?xml version="1.0" encoding="UTF-8" standalone="no"?><svg xmlns="http://www.w3.org/2000/svg" xmlns:xlink="http://www.w3.org/1999/xlink" clip-rule="evenodd" stroke-miterlimit="10" viewBox="0 0 860 63"><desc>SVG generated by Keynote</desc><defs></defs><g transform="matrix(1.00, 0.00, -0.00, -1.00, 0.0, 63.0)"><text xml:space="preserve" font-family="Helvetica-Light,Helvetica" font-size="65.0" fill="#000000" transform="matrix(1.00, 0.00, -0.00, -1.00, -1.6, 14.9)">a</text><text xml:space="preserve" font-family="Helvetica-Light,Helvetica" font-size="65.0" fill="#000000" transform="matrix(1.00, 0.00, -0.00, -1.00, 34.5, 14.9)">v</text><text xml:space="preserve" font-family="Helvetica-Light,Helvetica" font-size="65.0" fill="#000000" transform="matrix(1.00, 0.00, -0.00, -1.00, 67.0, 14.9)">o</text><text xml:space="preserve" font-family="Helvetica-Light,Helvetica" font-size="65.0" fill="#000000" transform="matrix(1.00, 0.00, -0.00, -1.00, 103.1, 14.9)">i</text><text xml:space="preserve" font-family="Helvetica-Light,Helvetica" font-size="65.0" fill="#000000" transform="matrix(1.00, 0.00, -0.00, -1.00, 117.6, 14.9)">d</text><text xml:space="preserve" font-family="Helvetica-Light,Helvetica" font-size="65.0" fill="#000000" transform="matrix(1.00, 0.00, -0.00, -1.00, 157.3, 14.9)"> </text><text xml:space="preserve" font-family="Helvetica-Light,Helvetica" font-size="65.0" fill="#000000" transform="matrix(1.00, 0.00, -0.00, -1.00, 175.4, 14.9)">s</text><text xml:space="preserve" font-family="Helvetica-Light,Helvetica" font-size="65.0" fill="#000000" transform="matrix(1.00, 0.00, -0.00, -1.00, 207.9, 14.9)">p</text><text xml:space="preserve" font-family="Helvetica-Light,Helvetica" font-size="65.0" fill="#000000" transform="matrix(1.00, 0.00, -0.00, -1.00, 247.6, 14.9)">i</text><text xml:space="preserve" font-family="Helvetica-Light,Helvetica" font-size="65.0" fill="#000000" transform="matrix(1.00, 0.00, -0.00, -1.00, 262.0, 14.9)">n</text><text xml:space="preserve" font-family="Helvetica-Light,Helvetica" font-size="65.0" fill="#000000" transform="matrix(1.00, 0.00, -0.00, -1.00, 298.1, 14.9)">n</text><text xml:space="preserve" font-family="Helvetica-Light,Helvetica" font-size="65.0" fill="#000000" transform="matrix(1.00, 0.00, -0.00, -1.00, 334.3, 14.9)">e</text><text xml:space="preserve" font-family="Helvetica-Light,Helvetica" font-size="65.0" fill="#000000" transform="matrix(1.00, 0.00, -0.00, -1.00, 370.4, 14.9)">r</text><text xml:space="preserve" font-family="Helvetica-Light,Helvetica" font-size="65.0" fill="#000000" transform="matrix(1.00, 0.00, -0.00, -1.00, 392.1, 14.9)">s</text><text xml:space="preserve" font-family="Helvetica-Light,Helvetica" font-size="65.0" fill="#000000" transform="matrix(1.00, 0.00, -0.00, -1.00, 424.6, 14.9)"> </text><text xml:space="preserve" font-family="Helvetica-Light,Helvetica" font-size="65.0" fill="#000000" transform="matrix(1.00, 0.00, -0.00, -1.00, 442.6, 14.9)">w</text><text xml:space="preserve" font-family="Helvetica-Light,Helvetica" font-size="65.0" fill="#000000" transform="matrix(1.00, 0.00, -0.00, -1.00, 489.6, 14.9)">h</text><text xml:space="preserve" font-family="Helvetica-Light,Helvetica" font-size="65.0" fill="#000000" transform="matrix(1.00, 0.00, -0.00, -1.00, 525.7, 14.9)">e</text><text xml:space="preserve" font-family="Helvetica-Light,Helvetica" font-size="65.0" fill="#000000" transform="matrix(1.00, 0.00, -0.00, -1.00, 561.9, 14.9)">n</text><text xml:space="preserve" font-family="Helvetica-Light,Helvetica" font-size="65.0" fill="#000000" transform="matrix(1.00, 0.00, -0.00, -1.00, 598.0, 14.9)"> </text><text xml:space="preserve" font-family="Helvetica-Light,Helvetica" font-size="65.0" fill="#000000" transform="matrix(1.00, 0.00, -0.00, -1.00, 616.1, 14.9)">p</text><text xml:space="preserve" font-family="Helvetica-Light,Helvetica" font-size="65.0" fill="#000000" transform="matrix(1.00, 0.00, -0.00, -1.00, 655.8, 14.9)">o</text><text xml:space="preserve" font-family="Helvetica-Light,Helvetica" font-size="65.0" fill="#000000" transform="matrix(1.00, 0.00, -0.00, -1.00, 691.9, 14.9)">s</text><text xml:space="preserve" font-family="Helvetica-Light,Helvetica" font-size="65.0" fill="#000000" transform="matrix(1.00, 0.00, -0.00, -1.00, 724.4, 14.9)">s</text><text xml:space="preserve" font-family="Helvetica-Light,Helvetica" font-size="65.0" fill="#000000" transform="matrix(1.00, 0.00, -0.00, -1.00, 756.9, 14.9)">i</text><text xml:space="preserve" font-family="Helvetica-Light,Helvetica" font-size="65.0" fill="#000000" transform="matrix(1.00, 0.00, -0.00, -1.00, 771.3, 14.9)">b</text><text xml:space="preserve" font-family="Helvetica-Light,Helvetica" font-size="65.0" fill="#000000" transform="matrix(1.00, 0.00, -0.00, -1.00, 811.1, 14.9)">l</text><text xml:space="preserve" font-family="Helvetica-Light,Helvetica" font-size="65.0" fill="#000000" transform="matrix(1.00, 0.00, -0.00, -1.00, 825.5, 14.9)">e</text></g></svg>