<?xml version="1.0" encoding="UTF-8" standalone="no"?><svg xmlns="http://www.w3.org/2000/svg" xmlns:xlink="http://www.w3.org/1999/xlink" clip-rule="evenodd" stroke-miterlimit="10" viewBox="0 0 1024 768"><desc>SVG generated by Keynote</desc><defs></defs><g transform="matrix(1.00, 0.00, -0.00, -1.00, 0.0, 768.0)"><path d="M 0.0 768.0 L 1024.0 768.0 L 1024.0 0.0 L 0.0 0.0 Z M 0.0 768.0 " fill="#FEFFFF"></path><image xlink:href="../../8D412634-5D98-40E4-BC82-B0223CAD539E/assets/C62240420DFFA9F77708FA77CDE66AA9.png" width="1583.00" height="768.00" transform="matrix(0.65, 0.00, -0.00, -0.65, -0.1, 574.3)"></image><text xml:space="preserve" font-family="HelveticaNeue-Light,Helvetica Neue" font-size="80.0" fill="#000000" transform="matrix(1.00, 0.00, -0.00, -1.00, 87.6, 642.4)">d</text><text xml:space="preserve" font-family="HelveticaNeue-Light,Helvetica Neue" font-size="80.0" fill="#000000" transform="matrix(1.00, 0.00, -0.00, -1.00, 133.5, 642.4)">e</text><text xml:space="preserve" font-family="HelveticaNeue-Light,Helvetica Neue" font-size="80.0" fill="#000000" transform="matrix(1.00, 0.00, -0.00, -1.00, 175.0, 642.4)">ﬁ</text><text xml:space="preserve" font-family="HelveticaNeue-Light,Helvetica Neue" font-size="80.0" fill="#000000" transform="matrix(1.00, 0.00, -0.00, -1.00, 210.6, 642.4)">n</text><text xml:space="preserve" font-family="HelveticaNeue-Light,Helvetica Neue" font-size="80.0" fill="#000000" transform="matrix(1.00, 0.00, -0.00, -1.00, 253.5, 642.4)">e</text><text xml:space="preserve" font-family="HelveticaNeue-Light,Helvetica Neue" font-size="80.0" fill="#000000" transform="matrix(1.00, 0.00, -0.00, -1.00, 295.0, 642.4)"> </text><text xml:space="preserve" font-family="HelveticaNeue-Light,Helvetica Neue" font-size="80.0" fill="#000000" transform="matrix(1.00, 0.00, -0.00, -1.00, 317.3, 642.4)">y</text><text xml:space="preserve" font-family="HelveticaNeue-Light,Helvetica Neue" font-size="80.0" fill="#000000" transform="matrix(1.00, 0.00, -0.00, -1.00, 354.3, 642.4)">o</text><text xml:space="preserve" font-family="HelveticaNeue-Light,Helvetica Neue" font-size="80.0" fill="#000000" transform="matrix(1.00, 0.00, -0.00, -1.00, 398.8, 642.4)">u</text><text xml:space="preserve" font-family="HelveticaNeue-Light,Helvetica Neue" font-size="80.0" fill="#000000" transform="matrix(1.00, 0.00, -0.00, -1.00, 441.8, 642.4)">r</text><text xml:space="preserve" font-family="HelveticaNeue-Light,Helvetica Neue" font-size="80.0" fill="#000000" transform="matrix(1.00, 0.00, -0.00, -1.00, 467.0, 642.4)"> </text><text xml:space="preserve" font-family="HelveticaNeue-Light,Helvetica Neue" font-size="80.0" fill="#000000" transform="matrix(1.00, 0.00, -0.00, -1.00, 489.2, 642.4)">v</text><text xml:space="preserve" font-family="HelveticaNeue-Light,Helvetica Neue" font-size="80.0" fill="#000000" transform="matrix(1.00, 0.00, -0.00, -1.00, 526.2, 642.4)">a</text><text xml:space="preserve" font-family="HelveticaNeue-Light,Helvetica Neue" font-size="80.0" fill="#000000" transform="matrix(1.00, 0.00, -0.00, -1.00, 567.8, 642.4)">r</text><text xml:space="preserve" font-family="HelveticaNeue-Light,Helvetica Neue" font-size="80.0" fill="#000000" transform="matrix(1.00, 0.00, -0.00, -1.00, 593.0, 642.4)">i</text><text xml:space="preserve" font-family="HelveticaNeue-Light,Helvetica Neue" font-size="80.0" fill="#000000" transform="matrix(1.00, 0.00, -0.00, -1.00, 607.8, 642.4)">a</text><text xml:space="preserve" font-family="HelveticaNeue-Light,Helvetica Neue" font-size="80.0" fill="#000000" transform="matrix(1.00, 0.00, -0.00, -1.00, 649.3, 642.4)">b</text><text xml:space="preserve" font-family="HelveticaNeue-Light,Helvetica Neue" font-size="80.0" fill="#000000" transform="matrix(1.00, 0.00, -0.00, -1.00, 695.2, 642.4)">l</text><text xml:space="preserve" font-family="HelveticaNeue-Light,Helvetica Neue" font-size="80.0" fill="#000000" transform="matrix(1.00, 0.00, -0.00, -1.00, 710.0, 642.4)">e</text><text xml:space="preserve" font-family="HelveticaNeue-Light,Helvetica Neue" font-size="80.0" fill="#000000" transform="matrix(1.00, 0.00, -0.00, -1.00, 751.5, 642.4)">s</text><text xml:space="preserve" font-family="HelveticaNeue-Light,Helvetica Neue" font-size="80.0" fill="#000000" transform="matrix(1.00, 0.00, -0.00, -1.00, 790.0, 642.4)"> </text><text xml:space="preserve" font-family="HelveticaNeue-Light,Helvetica Neue" font-size="80.0" fill="#000000" transform="matrix(1.00, 0.00, -0.00, -1.00, 812.2, 642.4)">ﬁ</text><text xml:space="preserve" font-family="HelveticaNeue-Light,Helvetica Neue" font-size="80.0" fill="#000000" transform="matrix(1.00, 0.00, -0.00, -1.00, 847.8, 642.4)">r</text><text xml:space="preserve" font-family="HelveticaNeue-Light,Helvetica Neue" font-size="80.0" fill="#000000" transform="matrix(1.00, 0.00, -0.00, -1.00, 873.0, 642.4)">s</text><text xml:space="preserve" font-family="HelveticaNeue-Light,Helvetica Neue" font-size="80.0" fill="#000000" transform="matrix(1.00, 0.00, -0.00, -1.00, 911.4, 642.4)">t</text><text xml:space="preserve" font-family="HelveticaNeue-Light,Helvetica Neue" font-size="26.0" fill="#000000" transform="matrix(1.00, 0.00, -0.00, -1.00, 63.9, 26.9)">b</text><text xml:space="preserve" font-family="HelveticaNeue-Light,Helvetica Neue" font-size="26.0" fill="#000000" transform="matrix(1.00, 0.00, -0.00, -1.00, 78.8, 26.9)">e</text><text xml:space="preserve" font-family="HelveticaNeue-Light,Helvetica Neue" font-size="26.0" fill="#000000" transform="matrix(1.00, 0.00, -0.00, -1.00, 92.3, 26.9)">c</text><text xml:space="preserve" font-family="HelveticaNeue-Light,Helvetica Neue" font-size="26.0" fill="#000000" transform="matrix(1.00, 0.00, -0.00, -1.00, 105.8, 26.9)">a</text><text xml:space="preserve" font-family="HelveticaNeue-Light,Helvetica Neue" font-size="26.0" fill="#000000" transform="matrix(1.00, 0.00, -0.00, -1.00, 119.3, 26.9)">u</text><text xml:space="preserve" font-family="HelveticaNeue-Light,Helvetica Neue" font-size="26.0" fill="#000000" transform="matrix(1.00, 0.00, -0.00, -1.00, 133.3, 26.9)">s</text><text xml:space="preserve" font-family="HelveticaNeue-Light,Helvetica Neue" font-size="26.0" fill="#000000" transform="matrix(1.00, 0.00, -0.00, -1.00, 145.8, 26.9)">e</text><text xml:space="preserve" font-family="HelveticaNeue-Light,Helvetica Neue" font-size="26.0" fill="#000000" transform="matrix(1.00, 0.00, -0.00, -1.00, 159.3, 26.9)"> </text><text xml:space="preserve" font-family="HelveticaNeue-Light,Helvetica Neue" font-size="26.0" fill="#000000" transform="matrix(1.00, 0.00, -0.00, -1.00, 166.5, 26.9)">s</text><text xml:space="preserve" font-family="HelveticaNeue-Light,Helvetica Neue" font-size="26.0" fill="#000000" transform="matrix(1.00, 0.00, -0.00, -1.00, 179.0, 26.9)">o</text><text xml:space="preserve" font-family="HelveticaNeue-Light,Helvetica Neue" font-size="26.0" fill="#000000" transform="matrix(1.00, 0.00, -0.00, -1.00, 193.4, 26.9)">m</text><text xml:space="preserve" font-family="HelveticaNeue-Light,Helvetica Neue" font-size="26.0" fill="#000000" transform="matrix(1.00, 0.00, -0.00, -1.00, 215.1, 26.9)">e</text><text xml:space="preserve" font-family="HelveticaNeue-Light,Helvetica Neue" font-size="26.0" fill="#000000" transform="matrix(1.00, 0.00, -0.00, -1.00, 228.6, 26.9)"> </text><text xml:space="preserve" font-family="HelveticaNeue-Light,Helvetica Neue" font-size="26.0" fill="#000000" transform="matrix(1.00, 0.00, -0.00, -1.00, 235.8, 26.9)">i</text><text xml:space="preserve" font-family="HelveticaNeue-Light,Helvetica Neue" font-size="26.0" fill="#000000" transform="matrix(1.00, 0.00, -0.00, -1.00, 240.6, 26.9)">n</text><text xml:space="preserve" font-family="HelveticaNeue-Light,Helvetica Neue" font-size="26.0" fill="#000000" transform="matrix(1.00, 0.00, -0.00, -1.00, 254.6, 26.9)">t</text><text xml:space="preserve" font-family="HelveticaNeue-Light,Helvetica Neue" font-size="26.0" fill="#000000" transform="matrix(1.00, 0.00, -0.00, -1.00, 262.3, 26.9)">e</text><text xml:space="preserve" font-family="HelveticaNeue-Light,Helvetica Neue" font-size="26.0" fill="#000000" transform="matrix(1.00, 0.00, -0.00, -1.00, 275.8, 26.9)">r</text><text xml:space="preserve" font-family="HelveticaNeue-Light,Helvetica Neue" font-size="26.0" fill="#000000" transform="matrix(1.00, 0.00, -0.00, -1.00, 284.4, 26.9)">n</text><text xml:space="preserve" font-family="HelveticaNeue-Light,Helvetica Neue" font-size="26.0" fill="#000000" transform="matrix(1.00, 0.00, -0.00, -1.00, 298.4, 26.9)">a</text><text xml:space="preserve" font-family="HelveticaNeue-Light,Helvetica Neue" font-size="26.0" fill="#000000" transform="matrix(1.00, 0.00, -0.00, -1.00, 311.9, 26.9)">l</text><text xml:space="preserve" font-family="HelveticaNeue-Light,Helvetica Neue" font-size="26.0" fill="#000000" transform="matrix(1.00, 0.00, -0.00, -1.00, 316.7, 26.9)"> </text><text xml:space="preserve" font-family="HelveticaNeue-Light,Helvetica Neue" font-size="26.0" fill="#000000" transform="matrix(1.00, 0.00, -0.00, -1.00, 323.9, 26.9)">v</text><text xml:space="preserve" font-family="HelveticaNeue-Light,Helvetica Neue" font-size="26.0" fill="#000000" transform="matrix(1.00, 0.00, -0.00, -1.00, 336.0, 26.9)">a</text><text xml:space="preserve" font-family="HelveticaNeue-Light,Helvetica Neue" font-size="26.0" fill="#000000" transform="matrix(1.00, 0.00, -0.00, -1.00, 349.5, 26.9)">r</text><text xml:space="preserve" font-family="HelveticaNeue-Light,Helvetica Neue" font-size="26.0" fill="#000000" transform="matrix(1.00, 0.00, -0.00, -1.00, 357.7, 26.9)">i</text><text xml:space="preserve" font-family="HelveticaNeue-Light,Helvetica Neue" font-size="26.0" fill="#000000" transform="matrix(1.00, 0.00, -0.00, -1.00, 362.5, 26.9)">a</text><text xml:space="preserve" font-family="HelveticaNeue-Light,Helvetica Neue" font-size="26.0" fill="#000000" transform="matrix(1.00, 0.00, -0.00, -1.00, 376.0, 26.9)">b</text><text xml:space="preserve" font-family="HelveticaNeue-Light,Helvetica Neue" font-size="26.0" fill="#000000" transform="matrix(1.00, 0.00, -0.00, -1.00, 390.9, 26.9)">l</text><text xml:space="preserve" font-family="HelveticaNeue-Light,Helvetica Neue" font-size="26.0" fill="#000000" transform="matrix(1.00, 0.00, -0.00, -1.00, 395.7, 26.9)">e</text><text xml:space="preserve" font-family="HelveticaNeue-Light,Helvetica Neue" font-size="26.0" fill="#000000" transform="matrix(1.00, 0.00, -0.00, -1.00, 409.2, 26.9)">s</text><text xml:space="preserve" font-family="HelveticaNeue-Light,Helvetica Neue" font-size="26.0" fill="#000000" transform="matrix(1.00, 0.00, -0.00, -1.00, 421.7, 26.9)"> </text><text xml:space="preserve" font-family="HelveticaNeue-Light,Helvetica Neue" font-size="26.0" fill="#000000" transform="matrix(1.00, 0.00, -0.00, -1.00, 428.9, 26.9)">a</text><text xml:space="preserve" font-family="HelveticaNeue-Light,Helvetica Neue" font-size="26.0" fill="#000000" transform="matrix(1.00, 0.00, -0.00, -1.00, 442.4, 26.9)">r</text><text xml:space="preserve" font-family="HelveticaNeue-Light,Helvetica Neue" font-size="26.0" fill="#000000" transform="matrix(1.00, 0.00, -0.00, -1.00, 450.1, 26.9)">e</text><text xml:space="preserve" font-family="HelveticaNeue-Light,Helvetica Neue" font-size="26.0" fill="#000000" transform="matrix(1.00, 0.00, -0.00, -1.00, 463.6, 26.9)"> </text><text xml:space="preserve" font-family="HelveticaNeue-Light,Helvetica Neue" font-size="26.0" fill="#000000" transform="matrix(1.00, 0.00, -0.00, -1.00, 470.9, 26.9)">d</text><text xml:space="preserve" font-family="HelveticaNeue-Light,Helvetica Neue" font-size="26.0" fill="#000000" transform="matrix(1.00, 0.00, -0.00, -1.00, 485.8, 26.9)">e</text><text xml:space="preserve" font-family="HelveticaNeue-Light,Helvetica Neue" font-size="26.0" fill="#000000" transform="matrix(1.00, 0.00, -0.00, -1.00, 499.3, 26.9)">p</text><text xml:space="preserve" font-family="HelveticaNeue-Light,Helvetica Neue" font-size="26.0" fill="#000000" transform="matrix(1.00, 0.00, -0.00, -1.00, 514.2, 26.9)">e</text><text xml:space="preserve" font-family="HelveticaNeue-Light,Helvetica Neue" font-size="26.0" fill="#000000" transform="matrix(1.00, 0.00, -0.00, -1.00, 527.7, 26.9)">n</text><text xml:space="preserve" font-family="HelveticaNeue-Light,Helvetica Neue" font-size="26.0" fill="#000000" transform="matrix(1.00, 0.00, -0.00, -1.00, 541.7, 26.9)">d</text><text xml:space="preserve" font-family="HelveticaNeue-Light,Helvetica Neue" font-size="26.0" fill="#000000" transform="matrix(1.00, 0.00, -0.00, -1.00, 556.6, 26.9)">e</text><text xml:space="preserve" font-family="HelveticaNeue-Light,Helvetica Neue" font-size="26.0" fill="#000000" transform="matrix(1.00, 0.00, -0.00, -1.00, 570.1, 26.9)">n</text><text xml:space="preserve" font-family="HelveticaNeue-Light,Helvetica Neue" font-size="26.0" fill="#000000" transform="matrix(1.00, 0.00, -0.00, -1.00, 584.0, 26.9)">t</text><text xml:space="preserve" font-family="HelveticaNeue-Light,Helvetica Neue" font-size="26.0" fill="#000000" transform="matrix(1.00, 0.00, -0.00, -1.00, 591.7, 26.9)"> </text><text xml:space="preserve" font-family="HelveticaNeue-Light,Helvetica Neue" font-size="26.0" fill="#000000" transform="matrix(1.00, 0.00, -0.00, -1.00, 599.0, 26.9)">o</text><text xml:space="preserve" font-family="HelveticaNeue-Light,Helvetica Neue" font-size="26.0" fill="#000000" transform="matrix(1.00, 0.00, -0.00, -1.00, 613.4, 26.9)">n</text><text xml:space="preserve" font-family="HelveticaNeue-Light,Helvetica Neue" font-size="26.0" fill="#000000" transform="matrix(1.00, 0.00, -0.00, -1.00, 627.4, 26.9)"> </text><text xml:space="preserve" font-family="HelveticaNeue-Light,Helvetica Neue" font-size="26.0" fill="#000000" transform="matrix(1.00, 0.00, -0.00, -1.00, 634.6, 26.9)">e</text><text xml:space="preserve" font-family="HelveticaNeue-Light,Helvetica Neue" font-size="26.0" fill="#000000" transform="matrix(1.00, 0.00, -0.00, -1.00, 648.1, 26.9)">a</text><text xml:space="preserve" font-family="HelveticaNeue-Light,Helvetica Neue" font-size="26.0" fill="#000000" transform="matrix(1.00, 0.00, -0.00, -1.00, 661.6, 26.9)">c</text><text xml:space="preserve" font-family="HelveticaNeue-Light,Helvetica Neue" font-size="26.0" fill="#000000" transform="matrix(1.00, 0.00, -0.00, -1.00, 675.1, 26.9)">h</text><text xml:space="preserve" font-family="HelveticaNeue-Light,Helvetica Neue" font-size="26.0" fill="#000000" transform="matrix(1.00, 0.00, -0.00, -1.00, 689.1, 26.9)"> </text><text xml:space="preserve" font-family="HelveticaNeue-Light,Helvetica Neue" font-size="26.0" fill="#000000" transform="matrix(1.00, 0.00, -0.00, -1.00, 696.3, 26.9)">o</text><text xml:space="preserve" font-family="HelveticaNeue-Light,Helvetica Neue" font-size="26.0" fill="#000000" transform="matrix(1.00, 0.00, -0.00, -1.00, 710.7, 26.9)">t</text><text xml:space="preserve" font-family="HelveticaNeue-Light,Helvetica Neue" font-size="26.0" fill="#000000" transform="matrix(1.00, 0.00, -0.00, -1.00, 718.4, 26.9)">h</text><text xml:space="preserve" font-family="HelveticaNeue-Light,Helvetica Neue" font-size="26.0" fill="#000000" transform="matrix(1.00, 0.00, -0.00, -1.00, 732.4, 26.9)">e</text><text xml:space="preserve" font-family="HelveticaNeue-Light,Helvetica Neue" font-size="26.0" fill="#000000" transform="matrix(1.00, 0.00, -0.00, -1.00, 745.9, 26.9)">r</text><text xml:space="preserve" font-family="HelveticaNeue-Light,Helvetica Neue" font-size="26.0" fill="#000000" transform="matrix(1.00, 0.00, -0.00, -1.00, 751.7, 26.9)">.</text><text xml:space="preserve" font-family="HelveticaNeue-Light,Helvetica Neue" font-size="26.0" fill="#000000" transform="matrix(1.00, 0.00, -0.00, -1.00, 758.9, 26.9)"> </text><text xml:space="preserve" font-family="HelveticaNeue-Light,Helvetica Neue" font-size="26.0" fill="#000000" transform="matrix(1.00, 0.00, -0.00, -1.00, 766.1, 26.9)">i</text><text xml:space="preserve" font-family="HelveticaNeue-Light,Helvetica Neue" font-size="26.0" fill="#000000" transform="matrix(1.00, 0.00, -0.00, -1.00, 771.0, 26.9)">e</text><text xml:space="preserve" font-family="HelveticaNeue-Light,Helvetica Neue" font-size="26.0" fill="#000000" transform="matrix(1.00, 0.00, -0.00, -1.00, 784.4, 26.9)">.</text><text xml:space="preserve" font-family="HelveticaNeue-Light,Helvetica Neue" font-size="26.0" fill="#000000" transform="matrix(1.00, 0.00, -0.00, -1.00, 791.7, 26.9)"> </text><text xml:space="preserve" font-family="HelveticaNeue-Light,Helvetica Neue" font-size="26.0" fill="#000000" transform="matrix(1.00, 0.00, -0.00, -1.00, 798.9, 26.9)">$</text><text xml:space="preserve" font-family="HelveticaNeue-Light,Helvetica Neue" font-size="26.0" fill="#000000" transform="matrix(1.00, 0.00, -0.00, -1.00, 813.4, 26.9)">l</text><text xml:space="preserve" font-family="HelveticaNeue-Light,Helvetica Neue" font-size="26.0" fill="#000000" transform="matrix(1.00, 0.00, -0.00, -1.00, 818.2, 26.9)">i</text><text xml:space="preserve" font-family="HelveticaNeue-Light,Helvetica Neue" font-size="26.0" fill="#000000" transform="matrix(1.00, 0.00, -0.00, -1.00, 823.0, 26.9)">n</text><text xml:space="preserve" font-family="HelveticaNeue-Light,Helvetica Neue" font-size="26.0" fill="#000000" transform="matrix(1.00, 0.00, -0.00, -1.00, 836.9, 26.9)">k</text><text xml:space="preserve" font-family="HelveticaNeue-Light,Helvetica Neue" font-size="26.0" fill="#000000" transform="matrix(1.00, 0.00, -0.00, -1.00, 849.9, 26.9)">-</text><text xml:space="preserve" font-family="HelveticaNeue-Light,Helvetica Neue" font-size="26.0" fill="#000000" transform="matrix(1.00, 0.00, -0.00, -1.00, 859.6, 26.9)">c</text><text xml:space="preserve" font-family="HelveticaNeue-Light,Helvetica Neue" font-size="26.0" fill="#000000" transform="matrix(1.00, 0.00, -0.00, -1.00, 873.1, 26.9)">o</text><text xml:space="preserve" font-family="HelveticaNeue-Light,Helvetica Neue" font-size="26.0" fill="#000000" transform="matrix(1.00, 0.00, -0.00, -1.00, 887.5, 26.9)">l</text><text xml:space="preserve" font-family="HelveticaNeue-Light,Helvetica Neue" font-size="26.0" fill="#000000" transform="matrix(1.00, 0.00, -0.00, -1.00, 892.3, 26.9)">o</text><text xml:space="preserve" font-family="HelveticaNeue-Light,Helvetica Neue" font-size="26.0" fill="#000000" transform="matrix(1.00, 0.00, -0.00, -1.00, 906.8, 26.9)">r</text></g></svg>