<?xml version="1.0" encoding="UTF-8" standalone="no"?><svg xmlns="http://www.w3.org/2000/svg" xmlns:xlink="http://www.w3.org/1999/xlink" clip-rule="evenodd" stroke-miterlimit="10" viewBox="0 0 1024 768"><desc>SVG generated by Keynote</desc><defs></defs><g transform="matrix(1.00, 0.00, -0.00, -1.00, 0.0, 768.0)"><path d="M 0.0 768.0 L 1024.0 768.0 L 1024.0 0.0 L 0.0 0.0 Z M 0.0 768.0 " fill="#FEFFFF"></path><text xml:space="preserve" font-family="HelveticaNeue-Light,Helvetica Neue" font-size="72.0" fill="#000000" transform="matrix(1.00, 0.00, -0.00, -1.00, 73.3, 644.4)">d</text><text xml:space="preserve" font-family="HelveticaNeue-Light,Helvetica Neue" font-size="72.0" fill="#000000" transform="matrix(1.00, 0.00, -0.00, -1.00, 114.6, 644.4)">i</text><text xml:space="preserve" font-family="HelveticaNeue-Light,Helvetica Neue" font-size="72.0" fill="#000000" transform="matrix(1.00, 0.00, -0.00, -1.00, 128.0, 644.4)">s</text><text xml:space="preserve" font-family="HelveticaNeue-Light,Helvetica Neue" font-size="72.0" fill="#000000" transform="matrix(1.00, 0.00, -0.00, -1.00, 162.6, 644.4)">a</text><text xml:space="preserve" font-family="HelveticaNeue-Light,Helvetica Neue" font-size="72.0" fill="#000000" transform="matrix(1.00, 0.00, -0.00, -1.00, 200.0, 644.4)">b</text><text xml:space="preserve" font-family="HelveticaNeue-Light,Helvetica Neue" font-size="72.0" fill="#000000" transform="matrix(1.00, 0.00, -0.00, -1.00, 241.3, 644.4)">l</text><text xml:space="preserve" font-family="HelveticaNeue-Light,Helvetica Neue" font-size="72.0" fill="#000000" transform="matrix(1.00, 0.00, -0.00, -1.00, 254.6, 644.4)">e</text><text xml:space="preserve" font-family="HelveticaNeue-Light,Helvetica Neue" font-size="72.0" fill="#000000" transform="matrix(1.00, 0.00, -0.00, -1.00, 292.0, 644.4)"> </text><text xml:space="preserve" font-family="HelveticaNeue-Light,Helvetica Neue" font-size="72.0" fill="#000000" transform="matrix(1.00, 0.00, -0.00, -1.00, 312.0, 644.4)">u</text><text xml:space="preserve" font-family="HelveticaNeue-Light,Helvetica Neue" font-size="72.0" fill="#000000" transform="matrix(1.00, 0.00, -0.00, -1.00, 350.6, 644.4)">n</text><text xml:space="preserve" font-family="HelveticaNeue-Light,Helvetica Neue" font-size="72.0" fill="#000000" transform="matrix(1.00, 0.00, -0.00, -1.00, 389.3, 644.4)">u</text><text xml:space="preserve" font-family="HelveticaNeue-Light,Helvetica Neue" font-size="72.0" fill="#000000" transform="matrix(1.00, 0.00, -0.00, -1.00, 428.0, 644.4)">s</text><text xml:space="preserve" font-family="HelveticaNeue-Light,Helvetica Neue" font-size="72.0" fill="#000000" transform="matrix(1.00, 0.00, -0.00, -1.00, 462.6, 644.4)">e</text><text xml:space="preserve" font-family="HelveticaNeue-Light,Helvetica Neue" font-size="72.0" fill="#000000" transform="matrix(1.00, 0.00, -0.00, -1.00, 500.0, 644.4)">d</text><text xml:space="preserve" font-family="HelveticaNeue-Light,Helvetica Neue" font-size="72.0" fill="#000000" transform="matrix(1.00, 0.00, -0.00, -1.00, 541.3, 644.4)"> </text><text xml:space="preserve" font-family="HelveticaNeue-Light,Helvetica Neue" font-size="72.0" fill="#000000" transform="matrix(1.00, 0.00, -0.00, -1.00, 561.3, 644.4)">c</text><text xml:space="preserve" font-family="HelveticaNeue-Light,Helvetica Neue" font-size="72.0" fill="#000000" transform="matrix(1.00, 0.00, -0.00, -1.00, 598.7, 644.4)">o</text><text xml:space="preserve" font-family="HelveticaNeue-Light,Helvetica Neue" font-size="72.0" fill="#000000" transform="matrix(1.00, 0.00, -0.00, -1.00, 638.7, 644.4)">m</text><text xml:space="preserve" font-family="HelveticaNeue-Light,Helvetica Neue" font-size="72.0" fill="#000000" transform="matrix(1.00, 0.00, -0.00, -1.00, 698.7, 644.4)">p</text><text xml:space="preserve" font-family="HelveticaNeue-Light,Helvetica Neue" font-size="72.0" fill="#000000" transform="matrix(1.00, 0.00, -0.00, -1.00, 740.0, 644.4)">o</text><text xml:space="preserve" font-family="HelveticaNeue-Light,Helvetica Neue" font-size="72.0" fill="#000000" transform="matrix(1.00, 0.00, -0.00, -1.00, 780.1, 644.4)">n</text><text xml:space="preserve" font-family="HelveticaNeue-Light,Helvetica Neue" font-size="72.0" fill="#000000" transform="matrix(1.00, 0.00, -0.00, -1.00, 818.7, 644.4)">e</text><text xml:space="preserve" font-family="HelveticaNeue-Light,Helvetica Neue" font-size="72.0" fill="#000000" transform="matrix(1.00, 0.00, -0.00, -1.00, 856.1, 644.4)">n</text><text xml:space="preserve" font-family="HelveticaNeue-Light,Helvetica Neue" font-size="72.0" fill="#000000" transform="matrix(1.00, 0.00, -0.00, -1.00, 894.8, 644.4)">t</text><text xml:space="preserve" font-family="HelveticaNeue-Light,Helvetica Neue" font-size="72.0" fill="#000000" transform="matrix(1.00, 0.00, -0.00, -1.00, 916.1, 644.4)">s</text><image xlink:href="6B81F8402D96A7AAF524E46F6081D9F6.png" width="954.00" height="1166.00" transform="matrix(0.84, 0.00, -0.00, -0.84, 111.0, 588.0)"></image></g></svg>