<?xml version="1.0" encoding="UTF-8" standalone="no"?><svg xmlns="http://www.w3.org/2000/svg" xmlns:xlink="http://www.w3.org/1999/xlink" clip-rule="evenodd" stroke-miterlimit="10" viewBox="0 0 1024 768"><desc>SVG generated by Keynote</desc><defs></defs><g transform="matrix(1.00, 0.00, -0.00, -1.00, 0.0, 768.0)"><path d="M 0.0 768.0 L 1024.0 768.0 L 1024.0 0.0 L 0.0 0.0 Z M 0.0 768.0 " fill="#FEFFFF"></path><text xml:space="preserve" font-family="HelveticaNeue-Thin,Helvetica Neue" font-size="80.0" fill="#000000" transform="matrix(1.00, 0.00, -0.00, -1.00, 351.2, 430.5)">u</text><text xml:space="preserve" font-family="HelveticaNeue-Thin,Helvetica Neue" font-size="80.0" fill="#000000" transform="matrix(1.00, 0.00, -0.00, -1.00, 392.7, 430.5)">x</text><text xml:space="preserve" font-family="HelveticaNeue-Thin,Helvetica Neue" font-size="80.0" fill="#000000" transform="matrix(1.00, 0.00, -0.00, -1.00, 428.2, 430.5)"> </text><text xml:space="preserve" font-family="HelveticaNeue-Thin,Helvetica Neue" font-size="80.0" fill="#000000" transform="matrix(1.00, 0.00, -0.00, -1.00, 450.4, 430.5)">d</text><text xml:space="preserve" font-family="HelveticaNeue-Thin,Helvetica Neue" font-size="80.0" fill="#000000" transform="matrix(1.00, 0.00, -0.00, -1.00, 494.9, 430.5)">e</text><text xml:space="preserve" font-family="HelveticaNeue-Thin,Helvetica Neue" font-size="80.0" fill="#000000" transform="matrix(1.00, 0.00, -0.00, -1.00, 536.4, 430.5)">s</text><text xml:space="preserve" font-family="HelveticaNeue-Thin,Helvetica Neue" font-size="80.0" fill="#000000" transform="matrix(1.00, 0.00, -0.00, -1.00, 574.9, 430.5)">i</text><text xml:space="preserve" font-family="HelveticaNeue-Thin,Helvetica Neue" font-size="80.0" fill="#000000" transform="matrix(1.00, 0.00, -0.00, -1.00, 588.4, 430.5)">g</text><text xml:space="preserve" font-family="HelveticaNeue-Thin,Helvetica Neue" font-size="80.0" fill="#000000" transform="matrix(1.00, 0.00, -0.00, -1.00, 631.3, 430.5)">n</text></g></svg>