<?xml version="1.0" encoding="UTF-8" standalone="no"?><svg xmlns="http://www.w3.org/2000/svg" xmlns:xlink="http://www.w3.org/1999/xlink" clip-rule="evenodd" stroke-miterlimit="10" viewBox="0 0 656 146"><desc>SVG generated by Keynote</desc><defs></defs><g transform="matrix(1.00, 0.00, -0.00, -1.00, 0.0, 146.0)"><text xml:space="preserve" font-family="HelveticaNeue-Light,Helvetica Neue" font-size="67.2" fill="#000000" transform="matrix(1.00, 0.00, -0.00, -1.00, -2.6, 96.0)">m</text><text xml:space="preserve" font-family="HelveticaNeue-Light,Helvetica Neue" font-size="67.2" fill="#000000" transform="matrix(1.00, 0.00, -0.00, -1.00, 53.4, 96.0)">a</text><text xml:space="preserve" font-family="HelveticaNeue-Light,Helvetica Neue" font-size="67.2" fill="#000000" transform="matrix(1.00, 0.00, -0.00, -1.00, 88.3, 96.0)">i</text><text xml:space="preserve" font-family="HelveticaNeue-Light,Helvetica Neue" font-size="67.2" fill="#000000" transform="matrix(1.00, 0.00, -0.00, -1.00, 100.7, 96.0)">n</text><text xml:space="preserve" font-family="HelveticaNeue-Light,Helvetica Neue" font-size="67.2" fill="#000000" transform="matrix(1.00, 0.00, -0.00, -1.00, 136.8, 96.0)">t</text><text xml:space="preserve" font-family="HelveticaNeue-Light,Helvetica Neue" font-size="67.2" fill="#000000" transform="matrix(1.00, 0.00, -0.00, -1.00, 156.7, 96.0)">a</text><text xml:space="preserve" font-family="HelveticaNeue-Light,Helvetica Neue" font-size="67.2" fill="#000000" transform="matrix(1.00, 0.00, -0.00, -1.00, 191.6, 96.0)">i</text><text xml:space="preserve" font-family="HelveticaNeue-Light,Helvetica Neue" font-size="67.2" fill="#000000" transform="matrix(1.00, 0.00, -0.00, -1.00, 204.0, 96.0)">n</text><text xml:space="preserve" font-family="HelveticaNeue-Light,Helvetica Neue" font-size="67.2" fill="#000000" transform="matrix(1.00, 0.00, -0.00, -1.00, 240.1, 96.0)">i</text><text xml:space="preserve" font-family="HelveticaNeue-Light,Helvetica Neue" font-size="67.2" fill="#000000" transform="matrix(1.00, 0.00, -0.00, -1.00, 252.5, 96.0)">n</text><text xml:space="preserve" font-family="HelveticaNeue-Light,Helvetica Neue" font-size="67.2" fill="#000000" transform="matrix(1.00, 0.00, -0.00, -1.00, 288.6, 96.0)">g</text><text xml:space="preserve" font-family="HelveticaNeue-Light,Helvetica Neue" font-size="67.2" fill="#000000" transform="matrix(1.00, 0.00, -0.00, -1.00, 326.0, 96.0)"> </text><text xml:space="preserve" font-family="HelveticaNeue-Light,Helvetica Neue" font-size="67.2" fill="#000000" transform="matrix(1.00, 0.00, -0.00, -1.00, 344.6, 96.0)">r</text><text xml:space="preserve" font-family="HelveticaNeue-Light,Helvetica Neue" font-size="67.2" fill="#000000" transform="matrix(1.00, 0.00, -0.00, -1.00, 364.6, 96.0)">e</text><text xml:space="preserve" font-family="HelveticaNeue-Light,Helvetica Neue" font-size="67.2" fill="#000000" transform="matrix(1.00, 0.00, -0.00, -1.00, 399.5, 96.0)">s</text><text xml:space="preserve" font-family="HelveticaNeue-Light,Helvetica Neue" font-size="67.2" fill="#000000" transform="matrix(1.00, 0.00, -0.00, -1.00, 431.8, 96.0)">p</text><text xml:space="preserve" font-family="HelveticaNeue-Light,Helvetica Neue" font-size="67.2" fill="#000000" transform="matrix(1.00, 0.00, -0.00, -1.00, 470.4, 96.0)">o</text><text xml:space="preserve" font-family="HelveticaNeue-Light,Helvetica Neue" font-size="67.2" fill="#000000" transform="matrix(1.00, 0.00, -0.00, -1.00, 507.7, 96.0)">n</text><text xml:space="preserve" font-family="HelveticaNeue-Light,Helvetica Neue" font-size="67.2" fill="#000000" transform="matrix(1.00, 0.00, -0.00, -1.00, 543.8, 96.0)">s</text><text xml:space="preserve" font-family="HelveticaNeue-Light,Helvetica Neue" font-size="67.2" fill="#000000" transform="matrix(1.00, 0.00, -0.00, -1.00, 576.2, 96.0)">i</text><text xml:space="preserve" font-family="HelveticaNeue-Light,Helvetica Neue" font-size="67.2" fill="#000000" transform="matrix(1.00, 0.00, -0.00, -1.00, 588.6, 96.0)">v</text><text xml:space="preserve" font-family="HelveticaNeue-Light,Helvetica Neue" font-size="67.2" fill="#000000" transform="matrix(1.00, 0.00, -0.00, -1.00, 619.7, 96.0)">e</text><text xml:space="preserve" font-family="HelveticaNeue-Light,Helvetica Neue" font-size="67.2" fill="#000000" transform="matrix(1.00, 0.00, -0.00, -1.00, 654.6, 96.0)"> </text><text xml:space="preserve" font-family="HelveticaNeue-Light,Helvetica Neue" font-size="67.2" fill="#000000" transform="matrix(1.00, 0.00, -0.00, -1.00, 144.3, 15.0)">c</text><text xml:space="preserve" font-family="HelveticaNeue-Light,Helvetica Neue" font-size="67.2" fill="#000000" transform="matrix(1.00, 0.00, -0.00, -1.00, 179.2, 15.0)">o</text><text xml:space="preserve" font-family="HelveticaNeue-Light,Helvetica Neue" font-size="67.2" fill="#000000" transform="matrix(1.00, 0.00, -0.00, -1.00, 216.5, 15.0)">m</text><text xml:space="preserve" font-family="HelveticaNeue-Light,Helvetica Neue" font-size="67.2" fill="#000000" transform="matrix(1.00, 0.00, -0.00, -1.00, 272.5, 15.0)">p</text><text xml:space="preserve" font-family="HelveticaNeue-Light,Helvetica Neue" font-size="67.2" fill="#000000" transform="matrix(1.00, 0.00, -0.00, -1.00, 311.1, 15.0)">o</text><text xml:space="preserve" font-family="HelveticaNeue-Light,Helvetica Neue" font-size="67.2" fill="#000000" transform="matrix(1.00, 0.00, -0.00, -1.00, 348.4, 15.0)">n</text><text xml:space="preserve" font-family="HelveticaNeue-Light,Helvetica Neue" font-size="67.2" fill="#000000" transform="matrix(1.00, 0.00, -0.00, -1.00, 384.5, 15.0)">e</text><text xml:space="preserve" font-family="HelveticaNeue-Light,Helvetica Neue" font-size="67.2" fill="#000000" transform="matrix(1.00, 0.00, -0.00, -1.00, 419.4, 15.0)">n</text><text xml:space="preserve" font-family="HelveticaNeue-Light,Helvetica Neue" font-size="67.2" fill="#000000" transform="matrix(1.00, 0.00, -0.00, -1.00, 455.5, 15.0)">t</text><text xml:space="preserve" font-family="HelveticaNeue-Light,Helvetica Neue" font-size="67.2" fill="#000000" transform="matrix(1.00, 0.00, -0.00, -1.00, 475.4, 15.0)">s</text></g></svg>