<?xml version="1.0" encoding="UTF-8" standalone="no"?><svg xmlns="http://www.w3.org/2000/svg" xmlns:xlink="http://www.w3.org/1999/xlink" clip-rule="evenodd" stroke-miterlimit="10" viewBox="0 0 858 68"><desc>SVG generated by Keynote</desc><defs></defs><g transform="matrix(1.00, 0.00, -0.00, -1.00, 0.0, 68.0)"><text xml:space="preserve" font-family="HelveticaNeue-Light,Helvetica Neue" font-size="71.2" fill="#000000" transform="matrix(1.00, 0.00, -0.00, -1.00, -3.2, 15.2)">l</text><text xml:space="preserve" font-family="HelveticaNeue-Light,Helvetica Neue" font-size="71.2" fill="#000000" transform="matrix(1.00, 0.00, -0.00, -1.00, 10.0, 15.2)">i</text><text xml:space="preserve" font-family="HelveticaNeue-Light,Helvetica Neue" font-size="71.2" fill="#000000" transform="matrix(1.00, 0.00, -0.00, -1.00, 23.2, 15.2)">f</text><text xml:space="preserve" font-family="HelveticaNeue-Light,Helvetica Neue" font-size="71.2" fill="#000000" transform="matrix(1.00, 0.00, -0.00, -1.00, 41.6, 15.2)">e</text><text xml:space="preserve" font-family="HelveticaNeue-Light,Helvetica Neue" font-size="71.2" fill="#000000" transform="matrix(1.00, 0.00, -0.00, -1.00, 78.6, 15.2)"> </text><text xml:space="preserve" font-family="HelveticaNeue-Light,Helvetica Neue" font-size="71.2" fill="#000000" transform="matrix(1.00, 0.00, -0.00, -1.00, 98.3, 15.2)">i</text><text xml:space="preserve" font-family="HelveticaNeue-Light,Helvetica Neue" font-size="71.2" fill="#000000" transform="matrix(1.00, 0.00, -0.00, -1.00, 111.5, 15.2)">s</text><text xml:space="preserve" font-family="HelveticaNeue-Light,Helvetica Neue" font-size="71.2" fill="#000000" transform="matrix(1.00, 0.00, -0.00, -1.00, 145.8, 15.2)"> </text><text xml:space="preserve" font-family="HelveticaNeue-Light,Helvetica Neue" font-size="71.2" fill="#000000" transform="matrix(1.00, 0.00, -0.00, -1.00, 165.6, 15.2)">h</text><text xml:space="preserve" font-family="HelveticaNeue-Light,Helvetica Neue" font-size="71.2" fill="#000000" transform="matrix(1.00, 0.00, -0.00, -1.00, 203.8, 15.2)">a</text><text xml:space="preserve" font-family="HelveticaNeue-Light,Helvetica Neue" font-size="71.2" fill="#000000" transform="matrix(1.00, 0.00, -0.00, -1.00, 240.7, 15.2)">p</text><text xml:space="preserve" font-family="HelveticaNeue-Light,Helvetica Neue" font-size="71.2" fill="#000000" transform="matrix(1.00, 0.00, -0.00, -1.00, 281.6, 15.2)">p</text><text xml:space="preserve" font-family="HelveticaNeue-Light,Helvetica Neue" font-size="71.2" fill="#000000" transform="matrix(1.00, 0.00, -0.00, -1.00, 322.5, 15.2)">i</text><text xml:space="preserve" font-family="HelveticaNeue-Light,Helvetica Neue" font-size="71.2" fill="#000000" transform="matrix(1.00, 0.00, -0.00, -1.00, 335.7, 15.2)">e</text><text xml:space="preserve" font-family="HelveticaNeue-Light,Helvetica Neue" font-size="71.2" fill="#000000" transform="matrix(1.00, 0.00, -0.00, -1.00, 372.6, 15.2)">r</text><text xml:space="preserve" font-family="HelveticaNeue-Light,Helvetica Neue" font-size="71.2" fill="#000000" transform="matrix(1.00, 0.00, -0.00, -1.00, 395.0, 15.2)"> </text><text xml:space="preserve" font-family="HelveticaNeue-Light,Helvetica Neue" font-size="71.2" fill="#000000" transform="matrix(1.00, 0.00, -0.00, -1.00, 414.8, 15.2)">w</text><text xml:space="preserve" font-family="HelveticaNeue-Light,Helvetica Neue" font-size="71.2" fill="#000000" transform="matrix(1.00, 0.00, -0.00, -1.00, 467.6, 15.2)">i</text><text xml:space="preserve" font-family="HelveticaNeue-Light,Helvetica Neue" font-size="71.2" fill="#000000" transform="matrix(1.00, 0.00, -0.00, -1.00, 480.8, 15.2)">t</text><text xml:space="preserve" font-family="HelveticaNeue-Light,Helvetica Neue" font-size="71.2" fill="#000000" transform="matrix(1.00, 0.00, -0.00, -1.00, 501.8, 15.2)">h</text><text xml:space="preserve" font-family="HelveticaNeue-Light,Helvetica Neue" font-size="71.2" fill="#000000" transform="matrix(1.00, 0.00, -0.00, -1.00, 540.1, 15.2)"> </text><text xml:space="preserve" font-family="HelveticaNeue-Light,Helvetica Neue" font-size="71.2" fill="#000000" transform="matrix(1.00, 0.00, -0.00, -1.00, 559.9, 15.2)">f</text><text xml:space="preserve" font-family="HelveticaNeue-Light,Helvetica Neue" font-size="71.2" fill="#000000" transform="matrix(1.00, 0.00, -0.00, -1.00, 578.3, 15.2)">o</text><text xml:space="preserve" font-family="HelveticaNeue-Light,Helvetica Neue" font-size="71.2" fill="#000000" transform="matrix(1.00, 0.00, -0.00, -1.00, 617.9, 15.2)">n</text><text xml:space="preserve" font-family="HelveticaNeue-Light,Helvetica Neue" font-size="71.2" fill="#000000" transform="matrix(1.00, 0.00, -0.00, -1.00, 656.1, 15.2)">t</text><text xml:space="preserve" font-family="HelveticaNeue-Light,Helvetica Neue" font-size="71.2" fill="#000000" transform="matrix(1.00, 0.00, -0.00, -1.00, 677.2, 15.2)"> </text><text xml:space="preserve" font-family="HelveticaNeue-Light,Helvetica Neue" font-size="71.2" fill="#000000" transform="matrix(1.00, 0.00, -0.00, -1.00, 697.0, 15.2)">i</text><text xml:space="preserve" font-family="HelveticaNeue-Light,Helvetica Neue" font-size="71.2" fill="#000000" transform="matrix(1.00, 0.00, -0.00, -1.00, 710.2, 15.2)">c</text><text xml:space="preserve" font-family="HelveticaNeue-Light,Helvetica Neue" font-size="71.2" fill="#000000" transform="matrix(1.00, 0.00, -0.00, -1.00, 747.1, 15.2)">o</text><text xml:space="preserve" font-family="HelveticaNeue-Light,Helvetica Neue" font-size="71.2" fill="#000000" transform="matrix(1.00, 0.00, -0.00, -1.00, 786.7, 15.2)">n</text><text xml:space="preserve" font-family="HelveticaNeue-Light,Helvetica Neue" font-size="71.2" fill="#000000" transform="matrix(1.00, 0.00, -0.00, -1.00, 824.9, 15.2)">s</text></g></svg>