<?xml version="1.0" encoding="UTF-8" standalone="no"?><svg xmlns="http://www.w3.org/2000/svg" xmlns:xlink="http://www.w3.org/1999/xlink" clip-rule="evenodd" stroke-miterlimit="10" viewBox="0 0 1024 768"><desc>SVG generated by Keynote</desc><defs></defs><g transform="matrix(1.00, 0.00, -0.00, -1.00, 0.0, 768.0)"><path d="M 0.0 768.0 L 1024.0 768.0 L 1024.0 0.0 L 0.0 0.0 Z M 0.0 768.0 " fill="#51A7F9"></path><text xml:space="preserve" font-family="HelveticaNeue-Medium,Helvetica Neue" font-size="80.0" fill="#FEFFFE" transform="matrix(1.00, 0.00, -0.00, -1.00, 280.1, 354.0)">w</text><text xml:space="preserve" font-family="HelveticaNeue-Medium,Helvetica Neue" font-size="80.0" fill="#FEFFFE" transform="matrix(1.00, 0.00, -0.00, -1.00, 342.3, 354.0)">h</text><text xml:space="preserve" font-family="HelveticaNeue-Medium,Helvetica Neue" font-size="80.0" fill="#FEFFFE" transform="matrix(1.00, 0.00, -0.00, -1.00, 388.2, 354.0)">a</text><text xml:space="preserve" font-family="HelveticaNeue-Medium,Helvetica Neue" font-size="80.0" fill="#FEFFFE" transform="matrix(1.00, 0.00, -0.00, -1.00, 432.7, 354.0)">t</text><text xml:space="preserve" font-family="HelveticaNeue-Medium,Helvetica Neue" font-size="80.0" fill="#FEFFFE" transform="matrix(1.00, 0.00, -0.00, -1.00, 459.4, 354.0)">’</text><text xml:space="preserve" font-family="HelveticaNeue-Medium,Helvetica Neue" font-size="80.0" fill="#FEFFFE" transform="matrix(1.00, 0.00, -0.00, -1.00, 475.7, 354.0)">s</text><text xml:space="preserve" font-family="HelveticaNeue-Medium,Helvetica Neue" font-size="80.0" fill="#FEFFFE" transform="matrix(1.00, 0.00, -0.00, -1.00, 517.2, 354.0)"> </text><text xml:space="preserve" font-family="HelveticaNeue-Medium,Helvetica Neue" font-size="80.0" fill="#FEFFFE" transform="matrix(1.00, 0.00, -0.00, -1.00, 539.4, 354.0)">n</text><text xml:space="preserve" font-family="HelveticaNeue-Medium,Helvetica Neue" font-size="80.0" fill="#FEFFFE" transform="matrix(1.00, 0.00, -0.00, -1.00, 585.4, 354.0)">e</text><text xml:space="preserve" font-family="HelveticaNeue-Medium,Helvetica Neue" font-size="80.0" fill="#FEFFFE" transform="matrix(1.00, 0.00, -0.00, -1.00, 629.8, 354.0)">x</text><text xml:space="preserve" font-family="HelveticaNeue-Medium,Helvetica Neue" font-size="80.0" fill="#FEFFFE" transform="matrix(1.00, 0.00, -0.00, -1.00, 672.8, 354.0)">t</text><text xml:space="preserve" font-family="HelveticaNeue-Medium,Helvetica Neue" font-size="80.0" fill="#FEFFFE" transform="matrix(1.00, 0.00, -0.00, -1.00, 699.4, 354.0)">?</text></g></svg>