<?xml version="1.0" encoding="UTF-8" standalone="no"?><svg xmlns="http://www.w3.org/2000/svg" xmlns:xlink="http://www.w3.org/1999/xlink" clip-rule="evenodd" stroke-miterlimit="10" viewBox="0 0 1024 768"><desc>SVG generated by Keynote</desc><defs></defs><g transform="matrix(1.00, 0.00, -0.00, -1.00, 0.0, 768.0)"><path d="M 0.0 768.0 L 1024.0 768.0 L 1024.0 0.0 L 0.0 0.0 Z M 0.0 768.0 " fill="#FEFFFF"></path><text xml:space="preserve" font-family="Helvetica-Light,Helvetica" font-size="80.0" fill="#000000" transform="matrix(1.00, 0.00, -0.00, -1.00, 498.7, 618.4)">`</text><image xlink:href="C138A9725BAE72D88CEF20433F9302A8.png" width="1781.00" height="1343.00" transform="matrix(0.58, 0.00, -0.00, -0.58, -5.2, 775.0)"></image><text xml:space="preserve" font-family="Helvetica-Light,Helvetica" font-size="13.0" fill="#000000" transform="matrix(1.00, 0.00, -0.00, -1.00, 227.3, 9.4)">h</text><text xml:space="preserve" font-family="Helvetica-Light,Helvetica" font-size="13.0" fill="#000000" transform="matrix(1.00, 0.00, -0.00, -1.00, 234.5, 9.4)">t</text><text xml:space="preserve" font-family="Helvetica-Light,Helvetica" font-size="13.0" fill="#000000" transform="matrix(1.00, 0.00, -0.00, -1.00, 238.1, 9.4)">t</text><text xml:space="preserve" font-family="Helvetica-Light,Helvetica" font-size="13.0" fill="#000000" transform="matrix(1.00, 0.00, -0.00, -1.00, 241.7, 9.4)">p</text><text xml:space="preserve" font-family="Helvetica-Light,Helvetica" font-size="13.0" fill="#000000" transform="matrix(1.00, 0.00, -0.00, -1.00, 249.7, 9.4)">:</text><text xml:space="preserve" font-family="Helvetica-Light,Helvetica" font-size="13.0" fill="#000000" transform="matrix(1.00, 0.00, -0.00, -1.00, 253.3, 9.4)">/</text><text xml:space="preserve" font-family="Helvetica-Light,Helvetica" font-size="13.0" fill="#000000" transform="matrix(1.00, 0.00, -0.00, -1.00, 256.9, 9.4)">/</text><text xml:space="preserve" font-family="Helvetica-Light,Helvetica" font-size="13.0" fill="#000000" transform="matrix(1.00, 0.00, -0.00, -1.00, 260.5, 9.4)">w</text><text xml:space="preserve" font-family="Helvetica-Light,Helvetica" font-size="13.0" fill="#000000" transform="matrix(1.00, 0.00, -0.00, -1.00, 269.9, 9.4)">w</text><text xml:space="preserve" font-family="Helvetica-Light,Helvetica" font-size="13.0" fill="#000000" transform="matrix(1.00, 0.00, -0.00, -1.00, 279.3, 9.4)">w</text><text xml:space="preserve" font-family="Helvetica-Light,Helvetica" font-size="13.0" fill="#000000" transform="matrix(1.00, 0.00, -0.00, -1.00, 287.9, 9.4)">.</text><text xml:space="preserve" font-family="Helvetica-Light,Helvetica" font-size="13.0" fill="#000000" transform="matrix(1.00, 0.00, -0.00, -1.00, 291.6, 9.4)">s</text><text xml:space="preserve" font-family="Helvetica-Light,Helvetica" font-size="13.0" fill="#000000" transform="matrix(1.00, 0.00, -0.00, -1.00, 298.1, 9.4)">l</text><text xml:space="preserve" font-family="Helvetica-Light,Helvetica" font-size="13.0" fill="#000000" transform="matrix(1.00, 0.00, -0.00, -1.00, 300.9, 9.4)">i</text><text xml:space="preserve" font-family="Helvetica-Light,Helvetica" font-size="13.0" fill="#000000" transform="matrix(1.00, 0.00, -0.00, -1.00, 303.8, 9.4)">d</text><text xml:space="preserve" font-family="Helvetica-Light,Helvetica" font-size="13.0" fill="#000000" transform="matrix(1.00, 0.00, -0.00, -1.00, 311.8, 9.4)">e</text><text xml:space="preserve" font-family="Helvetica-Light,Helvetica" font-size="13.0" fill="#000000" transform="matrix(1.00, 0.00, -0.00, -1.00, 319.0, 9.4)">s</text><text xml:space="preserve" font-family="Helvetica-Light,Helvetica" font-size="13.0" fill="#000000" transform="matrix(1.00, 0.00, -0.00, -1.00, 325.5, 9.4)">h</text><text xml:space="preserve" font-family="Helvetica-Light,Helvetica" font-size="13.0" fill="#000000" transform="matrix(1.00, 0.00, -0.00, -1.00, 332.7, 9.4)">a</text><text xml:space="preserve" font-family="Helvetica-Light,Helvetica" font-size="13.0" fill="#000000" transform="matrix(1.00, 0.00, -0.00, -1.00, 340.0, 9.4)">r</text><text xml:space="preserve" font-family="Helvetica-Light,Helvetica" font-size="13.0" fill="#000000" transform="matrix(1.00, 0.00, -0.00, -1.00, 344.1, 9.4)">e</text><text xml:space="preserve" font-family="Helvetica-Light,Helvetica" font-size="13.0" fill="#000000" transform="matrix(1.00, 0.00, -0.00, -1.00, 351.3, 9.4)">.</text><text xml:space="preserve" font-family="Helvetica-Light,Helvetica" font-size="13.0" fill="#000000" transform="matrix(1.00, 0.00, -0.00, -1.00, 354.9, 9.4)">n</text><text xml:space="preserve" font-family="Helvetica-Light,Helvetica" font-size="13.0" fill="#000000" transform="matrix(1.00, 0.00, -0.00, -1.00, 362.1, 9.4)">e</text><text xml:space="preserve" font-family="Helvetica-Light,Helvetica" font-size="13.0" fill="#000000" transform="matrix(1.00, 0.00, -0.00, -1.00, 369.4, 9.4)">t</text><text xml:space="preserve" font-family="Helvetica-Light,Helvetica" font-size="13.0" fill="#000000" transform="matrix(1.00, 0.00, -0.00, -1.00, 373.0, 9.4)">/</text><text xml:space="preserve" font-family="Helvetica-Light,Helvetica" font-size="13.0" fill="#000000" transform="matrix(1.00, 0.00, -0.00, -1.00, 376.6, 9.4)">j</text><text xml:space="preserve" font-family="Helvetica-Light,Helvetica" font-size="13.0" fill="#000000" transform="matrix(1.00, 0.00, -0.00, -1.00, 379.5, 9.4)">a</text><text xml:space="preserve" font-family="Helvetica-Light,Helvetica" font-size="13.0" fill="#000000" transform="matrix(1.00, 0.00, -0.00, -1.00, 386.7, 9.4)">m</text><text xml:space="preserve" font-family="Helvetica-Light,Helvetica" font-size="13.0" fill="#000000" transform="matrix(1.00, 0.00, -0.00, -1.00, 397.5, 9.4)">e</text><text xml:space="preserve" font-family="Helvetica-Light,Helvetica" font-size="13.0" fill="#000000" transform="matrix(1.00, 0.00, -0.00, -1.00, 404.8, 9.4)">s</text><text xml:space="preserve" font-family="Helvetica-Light,Helvetica" font-size="13.0" fill="#000000" transform="matrix(1.00, 0.00, -0.00, -1.00, 411.2, 9.4)">g</text><text xml:space="preserve" font-family="Helvetica-Light,Helvetica" font-size="13.0" fill="#000000" transform="matrix(1.00, 0.00, -0.00, -1.00, 419.2, 9.4)">p</text><text xml:space="preserve" font-family="Helvetica-Light,Helvetica" font-size="13.0" fill="#000000" transform="matrix(1.00, 0.00, -0.00, -1.00, 427.1, 9.4)">e</text><text xml:space="preserve" font-family="Helvetica-Light,Helvetica" font-size="13.0" fill="#000000" transform="matrix(1.00, 0.00, -0.00, -1.00, 434.4, 9.4)">a</text><text xml:space="preserve" font-family="Helvetica-Light,Helvetica" font-size="13.0" fill="#000000" transform="matrix(1.00, 0.00, -0.00, -1.00, 441.6, 9.4)">r</text><text xml:space="preserve" font-family="Helvetica-Light,Helvetica" font-size="13.0" fill="#000000" transform="matrix(1.00, 0.00, -0.00, -1.00, 445.7, 9.4)">c</text><text xml:space="preserve" font-family="Helvetica-Light,Helvetica" font-size="13.0" fill="#000000" transform="matrix(1.00, 0.00, -0.00, -1.00, 452.9, 9.4)">e</text><text xml:space="preserve" font-family="Helvetica-Light,Helvetica" font-size="13.0" fill="#000000" transform="matrix(1.00, 0.00, -0.00, -1.00, 460.1, 9.4)">/</text><text xml:space="preserve" font-family="Helvetica-Light,Helvetica" font-size="13.0" fill="#000000" transform="matrix(1.00, 0.00, -0.00, -1.00, 463.8, 9.4)">h</text><text xml:space="preserve" font-family="Helvetica-Light,Helvetica" font-size="13.0" fill="#000000" transform="matrix(1.00, 0.00, -0.00, -1.00, 471.0, 9.4)">t</text><text xml:space="preserve" font-family="Helvetica-Light,Helvetica" font-size="13.0" fill="#000000" transform="matrix(1.00, 0.00, -0.00, -1.00, 474.6, 9.4)">m</text><text xml:space="preserve" font-family="Helvetica-Light,Helvetica" font-size="13.0" fill="#000000" transform="matrix(1.00, 0.00, -0.00, -1.00, 485.4, 9.4)">l</text><text xml:space="preserve" font-family="Helvetica-Light,Helvetica" font-size="13.0" fill="#000000" transform="matrix(1.00, 0.00, -0.00, -1.00, 488.3, 9.4)">5</text><text xml:space="preserve" font-family="Helvetica-Light,Helvetica" font-size="13.0" fill="#000000" transform="matrix(1.00, 0.00, -0.00, -1.00, 495.5, 9.4)">-</text><text xml:space="preserve" font-family="Helvetica-Light,Helvetica" font-size="13.0" fill="#000000" transform="matrix(1.00, 0.00, -0.00, -1.00, 499.9, 9.4)">a</text><text xml:space="preserve" font-family="Helvetica-Light,Helvetica" font-size="13.0" fill="#000000" transform="matrix(1.00, 0.00, -0.00, -1.00, 507.1, 9.4)">n</text><text xml:space="preserve" font-family="Helvetica-Light,Helvetica" font-size="13.0" fill="#000000" transform="matrix(1.00, 0.00, -0.00, -1.00, 514.3, 9.4)">d</text><text xml:space="preserve" font-family="Helvetica-Light,Helvetica" font-size="13.0" fill="#000000" transform="matrix(1.00, 0.00, -0.00, -1.00, 522.3, 9.4)">-</text><text xml:space="preserve" font-family="Helvetica-Light,Helvetica" font-size="13.0" fill="#000000" transform="matrix(1.00, 0.00, -0.00, -1.00, 526.6, 9.4)">t</text><text xml:space="preserve" font-family="Helvetica-Light,Helvetica" font-size="13.0" fill="#000000" transform="matrix(1.00, 0.00, -0.00, -1.00, 530.2, 9.4)">h</text><text xml:space="preserve" font-family="Helvetica-Light,Helvetica" font-size="13.0" fill="#000000" transform="matrix(1.00, 0.00, -0.00, -1.00, 537.4, 9.4)">e</text><text xml:space="preserve" font-family="Helvetica-Light,Helvetica" font-size="13.0" fill="#000000" transform="matrix(1.00, 0.00, -0.00, -1.00, 544.7, 9.4)">-</text><text xml:space="preserve" font-family="Helvetica-Light,Helvetica" font-size="13.0" fill="#000000" transform="matrix(1.00, 0.00, -0.00, -1.00, 549.0, 9.4)">d</text><text xml:space="preserve" font-family="Helvetica-Light,Helvetica" font-size="13.0" fill="#000000" transform="matrix(1.00, 0.00, -0.00, -1.00, 556.9, 9.4)">a</text><text xml:space="preserve" font-family="Helvetica-Light,Helvetica" font-size="13.0" fill="#000000" transform="matrix(1.00, 0.00, -0.00, -1.00, 564.2, 9.4)">w</text><text xml:space="preserve" font-family="Helvetica-Light,Helvetica" font-size="13.0" fill="#000000" transform="matrix(1.00, 0.00, -0.00, -1.00, 573.6, 9.4)">n</text><text xml:space="preserve" font-family="Helvetica-Light,Helvetica" font-size="13.0" fill="#000000" transform="matrix(1.00, 0.00, -0.00, -1.00, 580.8, 9.4)">-</text><text xml:space="preserve" font-family="Helvetica-Light,Helvetica" font-size="13.0" fill="#000000" transform="matrix(1.00, 0.00, -0.00, -1.00, 585.1, 9.4)">o</text><text xml:space="preserve" font-family="Helvetica-Light,Helvetica" font-size="13.0" fill="#000000" transform="matrix(1.00, 0.00, -0.00, -1.00, 592.3, 9.4)">f</text><text xml:space="preserve" font-family="Helvetica-Light,Helvetica" font-size="13.0" fill="#000000" transform="matrix(1.00, 0.00, -0.00, -1.00, 596.0, 9.4)">-</text><text xml:space="preserve" font-family="Helvetica-Light,Helvetica" font-size="13.0" fill="#000000" transform="matrix(1.00, 0.00, -0.00, -1.00, 600.3, 9.4)">r</text><text xml:space="preserve" font-family="Helvetica-Light,Helvetica" font-size="13.0" fill="#000000" transform="matrix(1.00, 0.00, -0.00, -1.00, 604.6, 9.4)">i</text><text xml:space="preserve" font-family="Helvetica-Light,Helvetica" font-size="13.0" fill="#000000" transform="matrix(1.00, 0.00, -0.00, -1.00, 607.5, 9.4)">c</text><text xml:space="preserve" font-family="Helvetica-Light,Helvetica" font-size="13.0" fill="#000000" transform="matrix(1.00, 0.00, -0.00, -1.00, 614.7, 9.4)">h</text><text xml:space="preserve" font-family="Helvetica-Light,Helvetica" font-size="13.0" fill="#000000" transform="matrix(1.00, 0.00, -0.00, -1.00, 622.0, 9.4)">-</text><text xml:space="preserve" font-family="Helvetica-Light,Helvetica" font-size="13.0" fill="#000000" transform="matrix(1.00, 0.00, -0.00, -1.00, 626.3, 9.4)">m</text><text xml:space="preserve" font-family="Helvetica-Light,Helvetica" font-size="13.0" fill="#000000" transform="matrix(1.00, 0.00, -0.00, -1.00, 637.1, 9.4)">o</text><text xml:space="preserve" font-family="Helvetica-Light,Helvetica" font-size="13.0" fill="#000000" transform="matrix(1.00, 0.00, -0.00, -1.00, 644.3, 9.4)">b</text><text xml:space="preserve" font-family="Helvetica-Light,Helvetica" font-size="13.0" fill="#000000" transform="matrix(1.00, 0.00, -0.00, -1.00, 652.3, 9.4)">i</text><text xml:space="preserve" font-family="Helvetica-Light,Helvetica" font-size="13.0" fill="#000000" transform="matrix(1.00, 0.00, -0.00, -1.00, 655.2, 9.4)">l</text><text xml:space="preserve" font-family="Helvetica-Light,Helvetica" font-size="13.0" fill="#000000" transform="matrix(1.00, 0.00, -0.00, -1.00, 658.1, 9.4)">e</text><text xml:space="preserve" font-family="Helvetica-Light,Helvetica" font-size="13.0" fill="#000000" transform="matrix(1.00, 0.00, -0.00, -1.00, 665.3, 9.4)">-</text><text xml:space="preserve" font-family="Helvetica-Light,Helvetica" font-size="13.0" fill="#000000" transform="matrix(1.00, 0.00, -0.00, -1.00, 669.6, 9.4)">w</text><text xml:space="preserve" font-family="Helvetica-Light,Helvetica" font-size="13.0" fill="#000000" transform="matrix(1.00, 0.00, -0.00, -1.00, 679.0, 9.4)">e</text><text xml:space="preserve" font-family="Helvetica-Light,Helvetica" font-size="13.0" fill="#000000" transform="matrix(1.00, 0.00, -0.00, -1.00, 686.2, 9.4)">b</text><text xml:space="preserve" font-family="Helvetica-Light,Helvetica" font-size="13.0" fill="#000000" transform="matrix(1.00, 0.00, -0.00, -1.00, 694.2, 9.4)">-</text><text xml:space="preserve" font-family="Helvetica-Light,Helvetica" font-size="13.0" fill="#000000" transform="matrix(1.00, 0.00, -0.00, -1.00, 698.5, 9.4)">a</text><text xml:space="preserve" font-family="Helvetica-Light,Helvetica" font-size="13.0" fill="#000000" transform="matrix(1.00, 0.00, -0.00, -1.00, 705.7, 9.4)">p</text><text xml:space="preserve" font-family="Helvetica-Light,Helvetica" font-size="13.0" fill="#000000" transform="matrix(1.00, 0.00, -0.00, -1.00, 713.7, 9.4)">p</text><text xml:space="preserve" font-family="Helvetica-Light,Helvetica" font-size="13.0" fill="#000000" transform="matrix(1.00, 0.00, -0.00, -1.00, 721.6, 9.4)">l</text><text xml:space="preserve" font-family="Helvetica-Light,Helvetica" font-size="13.0" fill="#000000" transform="matrix(1.00, 0.00, -0.00, -1.00, 724.5, 9.4)">i</text><text xml:space="preserve" font-family="Helvetica-Light,Helvetica" font-size="13.0" fill="#000000" transform="matrix(1.00, 0.00, -0.00, -1.00, 727.4, 9.4)">c</text><text xml:space="preserve" font-family="Helvetica-Light,Helvetica" font-size="13.0" fill="#000000" transform="matrix(1.00, 0.00, -0.00, -1.00, 734.6, 9.4)">a</text><text xml:space="preserve" font-family="Helvetica-Light,Helvetica" font-size="13.0" fill="#000000" transform="matrix(1.00, 0.00, -0.00, -1.00, 741.8, 9.4)">t</text><text xml:space="preserve" font-family="Helvetica-Light,Helvetica" font-size="13.0" fill="#000000" transform="matrix(1.00, 0.00, -0.00, -1.00, 745.5, 9.4)">i</text><text xml:space="preserve" font-family="Helvetica-Light,Helvetica" font-size="13.0" fill="#000000" transform="matrix(1.00, 0.00, -0.00, -1.00, 748.3, 9.4)">o</text><text xml:space="preserve" font-family="Helvetica-Light,Helvetica" font-size="13.0" fill="#000000" transform="matrix(1.00, 0.00, -0.00, -1.00, 755.6, 9.4)">n</text><text xml:space="preserve" font-family="Helvetica-Light,Helvetica" font-size="13.0" fill="#000000" transform="matrix(1.00, 0.00, -0.00, -1.00, 762.8, 9.4)">s</text><text xml:space="preserve" font-family="Helvetica-Light,Helvetica" font-size="13.0" fill="#000000" transform="matrix(1.00, 0.00, -0.00, -1.00, 769.3, 9.4)">-</text><text xml:space="preserve" font-family="Helvetica-Light,Helvetica" font-size="13.0" fill="#000000" transform="matrix(1.00, 0.00, -0.00, -1.00, 773.6, 9.4)">p</text><text xml:space="preserve" font-family="Helvetica-Light,Helvetica" font-size="13.0" fill="#000000" transform="matrix(1.00, 0.00, -0.00, -1.00, 781.6, 9.4)">t</text><text xml:space="preserve" font-family="Helvetica-Light,Helvetica" font-size="13.0" fill="#000000" transform="matrix(1.00, 0.00, -0.00, -1.00, 785.2, 9.4)">-</text><text xml:space="preserve" font-family="Helvetica-Light,Helvetica" font-size="13.0" fill="#000000" transform="matrix(1.00, 0.00, -0.00, -1.00, 789.5, 9.4)">1</text><g><clipPath id="clip0x6080014bf8c0"><path d="M 226.3 7.1 L 796.7 7.1 L 796.7 9.8 L 226.3 9.8 Z M 226.3 7.1 "></path></clipPath><g clip-path="url(#clip0x6080014bf8c0)"><path d="M 4.5 18.0 L 574.0 18.0 " fill="none" stroke="#000000" stroke-width="0.65" transform="matrix(1.00, 0.00, 0.00, -1.00, 222.8, 26.4)"></path></g></g></g></svg>