<?xml version="1.0" encoding="UTF-8" standalone="no"?><svg xmlns="http://www.w3.org/2000/svg" xmlns:xlink="http://www.w3.org/1999/xlink" clip-rule="evenodd" stroke-miterlimit="10" viewBox="0 0 1024 768"><desc>SVG generated by Keynote</desc><defs></defs><g transform="matrix(1.00, 0.00, -0.00, -1.00, 0.0, 768.0)"><path d="M 0.0 768.0 L 1024.0 768.0 L 1024.0 0.0 L 0.0 0.0 Z M 0.0 768.0 " fill="#F38F18"></path><text xml:space="preserve" font-family="HelveticaNeue-Medium,Helvetica Neue" font-size="80.0" fill="#000000" transform="matrix(1.00, 0.00, -0.00, -1.00, 106.5, 375.7)">r</text><text xml:space="preserve" font-family="HelveticaNeue-Medium,Helvetica Neue" font-size="80.0" fill="#000000" transform="matrix(1.00, 0.00, -0.00, -1.00, 133.2, 375.7)">e</text><text xml:space="preserve" font-family="HelveticaNeue-Medium,Helvetica Neue" font-size="80.0" fill="#000000" transform="matrix(1.00, 0.00, -0.00, -1.00, 177.7, 375.7)">s</text><text xml:space="preserve" font-family="HelveticaNeue-Medium,Helvetica Neue" font-size="80.0" fill="#000000" transform="matrix(1.00, 0.00, -0.00, -1.00, 219.2, 375.7)">p</text><text xml:space="preserve" font-family="HelveticaNeue-Medium,Helvetica Neue" font-size="80.0" fill="#000000" transform="matrix(1.00, 0.00, -0.00, -1.00, 268.1, 375.7)">o</text><text xml:space="preserve" font-family="HelveticaNeue-Medium,Helvetica Neue" font-size="80.0" fill="#000000" transform="matrix(1.00, 0.00, -0.00, -1.00, 315.6, 375.7)">n</text><text xml:space="preserve" font-family="HelveticaNeue-Medium,Helvetica Neue" font-size="80.0" fill="#000000" transform="matrix(1.00, 0.00, -0.00, -1.00, 361.5, 375.7)">s</text><text xml:space="preserve" font-family="HelveticaNeue-Medium,Helvetica Neue" font-size="80.0" fill="#000000" transform="matrix(1.00, 0.00, -0.00, -1.00, 403.0, 375.7)">i</text><text xml:space="preserve" font-family="HelveticaNeue-Medium,Helvetica Neue" font-size="80.0" fill="#000000" transform="matrix(1.00, 0.00, -0.00, -1.00, 422.3, 375.7)">v</text><text xml:space="preserve" font-family="HelveticaNeue-Medium,Helvetica Neue" font-size="80.0" fill="#000000" transform="matrix(1.00, 0.00, -0.00, -1.00, 463.8, 375.7)">e</text><text xml:space="preserve" font-family="HelveticaNeue-Thin,Helvetica Neue" font-size="80.0" fill="#000000" transform="matrix(1.00, 0.00, -0.00, -1.00, 508.3, 375.7)"> </text><text xml:space="preserve" font-family="HelveticaNeue-Thin,Helvetica Neue" font-size="80.0" fill="#000000" transform="matrix(1.00, 0.00, -0.00, -1.00, 530.5, 375.7)">w</text><text xml:space="preserve" font-family="HelveticaNeue-Thin,Helvetica Neue" font-size="80.0" fill="#000000" transform="matrix(1.00, 0.00, -0.00, -1.00, 586.8, 375.7)">e</text><text xml:space="preserve" font-family="HelveticaNeue-Thin,Helvetica Neue" font-size="80.0" fill="#000000" transform="matrix(1.00, 0.00, -0.00, -1.00, 628.4, 375.7)">b</text><text xml:space="preserve" font-family="HelveticaNeue-Thin,Helvetica Neue" font-size="80.0" fill="#000000" transform="matrix(1.00, 0.00, -0.00, -1.00, 672.8, 375.7)"> </text><text xml:space="preserve" font-family="HelveticaNeue-Thin,Helvetica Neue" font-size="80.0" fill="#000000" transform="matrix(1.00, 0.00, -0.00, -1.00, 695.1, 375.7)">d</text><text xml:space="preserve" font-family="HelveticaNeue-Thin,Helvetica Neue" font-size="80.0" fill="#000000" transform="matrix(1.00, 0.00, -0.00, -1.00, 739.6, 375.7)">e</text><text xml:space="preserve" font-family="HelveticaNeue-Thin,Helvetica Neue" font-size="80.0" fill="#000000" transform="matrix(1.00, 0.00, -0.00, -1.00, 781.1, 375.7)">s</text><text xml:space="preserve" font-family="HelveticaNeue-Thin,Helvetica Neue" font-size="80.0" fill="#000000" transform="matrix(1.00, 0.00, -0.00, -1.00, 819.6, 375.7)">i</text><text xml:space="preserve" font-family="HelveticaNeue-Thin,Helvetica Neue" font-size="80.0" fill="#000000" transform="matrix(1.00, 0.00, -0.00, -1.00, 833.0, 375.7)">g</text><text xml:space="preserve" font-family="HelveticaNeue-Thin,Helvetica Neue" font-size="80.0" fill="#000000" transform="matrix(1.00, 0.00, -0.00, -1.00, 876.0, 375.7)">n</text></g></svg>