<?xml version="1.0" encoding="UTF-8" standalone="no"?><svg xmlns="http://www.w3.org/2000/svg" xmlns:xlink="http://www.w3.org/1999/xlink" clip-rule="evenodd" stroke-miterlimit="10" viewBox="0 0 1024 768"><desc>SVG generated by Keynote</desc><defs></defs><g transform="matrix(1.00, 0.00, -0.00, -1.00, 0.0, 768.0)"><path d="M 0.0 768.0 L 1024.0 768.0 L 1024.0 0.0 L 0.0 0.0 Z M 0.0 768.0 " fill="#C82505"></path><text xml:space="preserve" font-family="HelveticaNeue-Thin,Helvetica Neue" font-size="48.0" fill="#FEFFFE" transform="matrix(1.00, 0.00, -0.00, -1.00, 190.1, 365.8)">e</text><text xml:space="preserve" font-family="HelveticaNeue-Thin,Helvetica Neue" font-size="48.0" fill="#FEFFFE" transform="matrix(1.00, 0.00, -0.00, -1.00, 215.0, 365.8)">v</text><text xml:space="preserve" font-family="HelveticaNeue-Thin,Helvetica Neue" font-size="48.0" fill="#FEFFFE" transform="matrix(1.00, 0.00, -0.00, -1.00, 236.3, 365.8)">e</text><text xml:space="preserve" font-family="HelveticaNeue-Thin,Helvetica Neue" font-size="48.0" fill="#FEFFFE" transform="matrix(1.00, 0.00, -0.00, -1.00, 261.2, 365.8)">r</text><text xml:space="preserve" font-family="HelveticaNeue-Thin,Helvetica Neue" font-size="48.0" fill="#FEFFFE" transform="matrix(1.00, 0.00, -0.00, -1.00, 275.5, 365.8)">y</text><text xml:space="preserve" font-family="HelveticaNeue-Thin,Helvetica Neue" font-size="48.0" fill="#FEFFFE" transform="matrix(1.00, 0.00, -0.00, -1.00, 296.8, 365.8)">t</text><text xml:space="preserve" font-family="HelveticaNeue-Thin,Helvetica Neue" font-size="48.0" fill="#FEFFFE" transform="matrix(1.00, 0.00, -0.00, -1.00, 309.2, 365.8)">h</text><text xml:space="preserve" font-family="HelveticaNeue-Thin,Helvetica Neue" font-size="48.0" fill="#FEFFFE" transform="matrix(1.00, 0.00, -0.00, -1.00, 334.1, 365.8)">i</text><text xml:space="preserve" font-family="HelveticaNeue-Thin,Helvetica Neue" font-size="48.0" fill="#FEFFFE" transform="matrix(1.00, 0.00, -0.00, -1.00, 342.2, 365.8)">n</text><text xml:space="preserve" font-family="HelveticaNeue-Thin,Helvetica Neue" font-size="48.0" fill="#FEFFFE" transform="matrix(1.00, 0.00, -0.00, -1.00, 367.1, 365.8)">g</text><text xml:space="preserve" font-family="HelveticaNeue-Thin,Helvetica Neue" font-size="48.0" fill="#FEFFFE" transform="matrix(1.00, 0.00, -0.00, -1.00, 392.9, 365.8)"> </text><text xml:space="preserve" font-family="HelveticaNeue-Thin,Helvetica Neue" font-size="48.0" fill="#FEFFFE" transform="matrix(1.00, 0.00, -0.00, -1.00, 406.2, 365.8)">o</text><text xml:space="preserve" font-family="HelveticaNeue-Thin,Helvetica Neue" font-size="48.0" fill="#FEFFFE" transform="matrix(1.00, 0.00, -0.00, -1.00, 432.0, 365.8)">n</text><text xml:space="preserve" font-family="HelveticaNeue-Thin,Helvetica Neue" font-size="48.0" fill="#FEFFFE" transform="matrix(1.00, 0.00, -0.00, -1.00, 456.9, 365.8)"> </text><text xml:space="preserve" font-family="HelveticaNeue-Thin,Helvetica Neue" font-size="48.0" fill="#FEFFFE" transform="matrix(1.00, 0.00, -0.00, -1.00, 470.2, 365.8)">t</text><text xml:space="preserve" font-family="HelveticaNeue-Thin,Helvetica Neue" font-size="48.0" fill="#FEFFFE" transform="matrix(1.00, 0.00, -0.00, -1.00, 482.7, 365.8)">h</text><text xml:space="preserve" font-family="HelveticaNeue-Thin,Helvetica Neue" font-size="48.0" fill="#FEFFFE" transform="matrix(1.00, 0.00, -0.00, -1.00, 507.6, 365.8)">e</text><text xml:space="preserve" font-family="HelveticaNeue-Thin,Helvetica Neue" font-size="48.0" fill="#FEFFFE" transform="matrix(1.00, 0.00, -0.00, -1.00, 532.5, 365.8)"> </text><text xml:space="preserve" font-family="HelveticaNeue-Thin,Helvetica Neue" font-size="48.0" fill="#FEFFFE" transform="matrix(1.00, 0.00, -0.00, -1.00, 545.8, 365.8)">w</text><text xml:space="preserve" font-family="HelveticaNeue-Thin,Helvetica Neue" font-size="48.0" fill="#FEFFFE" transform="matrix(1.00, 0.00, -0.00, -1.00, 579.6, 365.8)">e</text><text xml:space="preserve" font-family="HelveticaNeue-Thin,Helvetica Neue" font-size="48.0" fill="#FEFFFE" transform="matrix(1.00, 0.00, -0.00, -1.00, 604.5, 365.8)">b</text><text xml:space="preserve" font-family="HelveticaNeue-Thin,Helvetica Neue" font-size="48.0" fill="#FEFFFE" transform="matrix(1.00, 0.00, -0.00, -1.00, 631.2, 365.8)"> </text><text xml:space="preserve" font-family="HelveticaNeue-Thin,Helvetica Neue" font-size="48.0" fill="#FEFFFE" transform="matrix(1.00, 0.00, -0.00, -1.00, 644.6, 365.8)">i</text><text xml:space="preserve" font-family="HelveticaNeue-Thin,Helvetica Neue" font-size="48.0" fill="#FEFFFE" transform="matrix(1.00, 0.00, -0.00, -1.00, 652.6, 365.8)">s</text><text xml:space="preserve" font-family="HelveticaNeue-Thin,Helvetica Neue" font-size="48.0" fill="#FEFFFE" transform="matrix(1.00, 0.00, -0.00, -1.00, 675.7, 365.8)"> </text><text xml:space="preserve" font-family="HelveticaNeue-Thin,Helvetica Neue" font-size="48.0" fill="#FEFFFE" transform="matrix(1.00, 0.00, -0.00, -1.00, 689.1, 365.8)">a</text><text xml:space="preserve" font-family="HelveticaNeue-Thin,Helvetica Neue" font-size="48.0" fill="#FEFFFE" transform="matrix(1.00, 0.00, -0.00, -1.00, 713.1, 365.8)"> </text><text xml:space="preserve" font-family="HelveticaNeue-Bold,Helvetica Neue" font-weight="bold" font-size="48.0" fill="#FEFFFE" transform="matrix(1.00, 0.00, -0.00, -1.00, 726.4, 365.8)">f</text><text xml:space="preserve" font-family="HelveticaNeue-Bold,Helvetica Neue" font-weight="bold" font-size="48.0" fill="#FEFFFE" transform="matrix(1.00, 0.00, -0.00, -1.00, 742.4, 365.8)">o</text><text xml:space="preserve" font-family="HelveticaNeue-Bold,Helvetica Neue" font-weight="bold" font-size="48.0" fill="#FEFFFE" transform="matrix(1.00, 0.00, -0.00, -1.00, 771.7, 365.8)">r</text><text xml:space="preserve" font-family="HelveticaNeue-Bold,Helvetica Neue" font-weight="bold" font-size="48.0" fill="#FEFFFE" transform="matrix(1.00, 0.00, -0.00, -1.00, 790.4, 365.8)">m</text></g></svg>