<?xml version="1.0" encoding="UTF-8" standalone="no"?><svg xmlns="http://www.w3.org/2000/svg" xmlns:xlink="http://www.w3.org/1999/xlink" clip-rule="evenodd" stroke-miterlimit="10" viewBox="0 0 1024 768"><desc>SVG generated by Keynote</desc><defs></defs><g transform="matrix(1.00, 0.00, -0.00, -1.00, 0.0, 768.0)"><path d="M 0.0 768.0 L 1024.0 768.0 L 1024.0 0.0 L 0.0 0.0 Z M 0.0 768.0 " fill="#FEFFFF"></path><text xml:space="preserve" font-family="HelveticaNeue-Thin,Helvetica Neue" font-size="70.4" fill="#000000" transform="matrix(1.00, 0.00, -0.00, -1.00, 82.1, 357.0)">t</text><text xml:space="preserve" font-family="HelveticaNeue-Thin,Helvetica Neue" font-size="70.4" fill="#000000" transform="matrix(1.00, 0.00, -0.00, -1.00, 100.3, 357.0)">h</text><text xml:space="preserve" font-family="HelveticaNeue-Thin,Helvetica Neue" font-size="70.4" fill="#000000" transform="matrix(1.00, 0.00, -0.00, -1.00, 136.9, 357.0)">i</text><text xml:space="preserve" font-family="HelveticaNeue-Thin,Helvetica Neue" font-size="70.4" fill="#000000" transform="matrix(1.00, 0.00, -0.00, -1.00, 148.7, 357.0)">n</text><text xml:space="preserve" font-family="HelveticaNeue-Thin,Helvetica Neue" font-size="70.4" fill="#000000" transform="matrix(1.00, 0.00, -0.00, -1.00, 185.2, 357.0)">k</text><text xml:space="preserve" font-family="HelveticaNeue-Thin,Helvetica Neue" font-size="70.4" fill="#000000" transform="matrix(1.00, 0.00, -0.00, -1.00, 217.8, 357.0)"> </text><text xml:space="preserve" font-family="HelveticaNeue-Thin,Helvetica Neue" font-size="70.4" fill="#000000" transform="matrix(1.00, 0.00, -0.00, -1.00, 237.4, 357.0)">a</text><text xml:space="preserve" font-family="HelveticaNeue-Thin,Helvetica Neue" font-size="70.4" fill="#000000" transform="matrix(1.00, 0.00, -0.00, -1.00, 272.6, 357.0)">b</text><text xml:space="preserve" font-family="HelveticaNeue-Thin,Helvetica Neue" font-size="70.4" fill="#000000" transform="matrix(1.00, 0.00, -0.00, -1.00, 311.7, 357.0)">o</text><text xml:space="preserve" font-family="HelveticaNeue-Thin,Helvetica Neue" font-size="70.4" fill="#000000" transform="matrix(1.00, 0.00, -0.00, -1.00, 349.6, 357.0)">u</text><text xml:space="preserve" font-family="HelveticaNeue-Thin,Helvetica Neue" font-size="70.4" fill="#000000" transform="matrix(1.00, 0.00, -0.00, -1.00, 386.1, 357.0)">t</text><text xml:space="preserve" font-family="HelveticaNeue-Thin,Helvetica Neue" font-size="70.4" fill="#000000" transform="matrix(1.00, 0.00, -0.00, -1.00, 404.3, 357.0)"> </text><text xml:space="preserve" font-family="HelveticaNeue-Thin,Helvetica Neue" font-size="70.4" fill="#000000" transform="matrix(1.00, 0.00, -0.00, -1.00, 423.9, 357.0)">m</text><text xml:space="preserve" font-family="HelveticaNeue-Thin,Helvetica Neue" font-size="70.4" fill="#000000" transform="matrix(1.00, 0.00, -0.00, -1.00, 479.9, 357.0)">o</text><text xml:space="preserve" font-family="HelveticaNeue-Thin,Helvetica Neue" font-size="70.4" fill="#000000" transform="matrix(1.00, 0.00, -0.00, -1.00, 517.7, 357.0)">b</text><text xml:space="preserve" font-family="HelveticaNeue-Thin,Helvetica Neue" font-size="70.4" fill="#000000" transform="matrix(1.00, 0.00, -0.00, -1.00, 556.9, 357.0)">i</text><text xml:space="preserve" font-family="HelveticaNeue-Thin,Helvetica Neue" font-size="70.4" fill="#000000" transform="matrix(1.00, 0.00, -0.00, -1.00, 568.7, 357.0)">l</text><text xml:space="preserve" font-family="HelveticaNeue-Thin,Helvetica Neue" font-size="70.4" fill="#000000" transform="matrix(1.00, 0.00, -0.00, -1.00, 580.5, 357.0)">e</text><text xml:space="preserve" font-family="HelveticaNeue-Thin,Helvetica Neue" font-size="70.4" fill="#000000" transform="matrix(1.00, 0.00, -0.00, -1.00, 617.1, 357.0)"> </text><text xml:space="preserve" font-family="HelveticaNeue-Thin,Helvetica Neue" font-size="70.4" fill="#000000" transform="matrix(1.00, 0.00, -0.00, -1.00, 636.6, 357.0)">i</text><text xml:space="preserve" font-family="HelveticaNeue-Thin,Helvetica Neue" font-size="70.4" fill="#000000" transform="matrix(1.00, 0.00, -0.00, -1.00, 648.5, 357.0)">n</text><text xml:space="preserve" font-family="HelveticaNeue-Thin,Helvetica Neue" font-size="70.4" fill="#000000" transform="matrix(1.00, 0.00, -0.00, -1.00, 685.0, 357.0)">p</text><text xml:space="preserve" font-family="HelveticaNeue-Thin,Helvetica Neue" font-size="70.4" fill="#000000" transform="matrix(1.00, 0.00, -0.00, -1.00, 724.2, 357.0)">u</text><text xml:space="preserve" font-family="HelveticaNeue-Thin,Helvetica Neue" font-size="70.4" fill="#000000" transform="matrix(1.00, 0.00, -0.00, -1.00, 760.7, 357.0)">t</text><text xml:space="preserve" font-family="HelveticaNeue-Thin,Helvetica Neue" font-size="70.4" fill="#000000" transform="matrix(1.00, 0.00, -0.00, -1.00, 778.9, 357.0)"> </text><text xml:space="preserve" font-family="HelveticaNeue-Thin,Helvetica Neue" font-size="70.4" fill="#000000" transform="matrix(1.00, 0.00, -0.00, -1.00, 798.5, 357.0)">e</text><text xml:space="preserve" font-family="HelveticaNeue-Thin,Helvetica Neue" font-size="70.4" fill="#000000" transform="matrix(1.00, 0.00, -0.00, -1.00, 835.0, 357.0)">n</text><text xml:space="preserve" font-family="HelveticaNeue-Thin,Helvetica Neue" font-size="70.4" fill="#000000" transform="matrix(1.00, 0.00, -0.00, -1.00, 871.6, 357.0)">t</text><text xml:space="preserve" font-family="HelveticaNeue-Thin,Helvetica Neue" font-size="70.4" fill="#000000" transform="matrix(1.00, 0.00, -0.00, -1.00, 889.8, 357.0)">r</text><text xml:space="preserve" font-family="HelveticaNeue-Thin,Helvetica Neue" font-size="70.4" fill="#000000" transform="matrix(1.00, 0.00, -0.00, -1.00, 910.6, 357.0)">y</text></g></svg>