<?xml version="1.0" encoding="UTF-8" standalone="no"?><svg xmlns="http://www.w3.org/2000/svg" xmlns:xlink="http://www.w3.org/1999/xlink" clip-rule="evenodd" stroke-miterlimit="10" viewBox="0 0 1024 768"><desc>SVG generated by Keynote</desc><defs></defs><g transform="matrix(1.00, 0.00, -0.00, -1.00, 0.0, 768.0)"><path d="M 0.0 768.0 L 1024.0 768.0 L 1024.0 0.0 L 0.0 0.0 Z M 0.0 768.0 " fill="#000000"></path><text xml:space="preserve" font-family="HelveticaNeue-Thin,Helvetica Neue" font-size="67.2" fill="#FEFFFE" transform="matrix(1.00, 0.00, -0.00, -1.00, 253.8, 663.3)">h</text><text xml:space="preserve" font-family="HelveticaNeue-Thin,Helvetica Neue" font-size="67.2" fill="#FEFFFE" transform="matrix(1.00, 0.00, -0.00, -1.00, 288.7, 663.3)">u</text><text xml:space="preserve" font-family="HelveticaNeue-Thin,Helvetica Neue" font-size="67.2" fill="#FEFFFE" transform="matrix(1.00, 0.00, -0.00, -1.00, 323.5, 663.3)">g</text><text xml:space="preserve" font-family="HelveticaNeue-Thin,Helvetica Neue" font-size="67.2" fill="#FEFFFE" transform="matrix(1.00, 0.00, -0.00, -1.00, 359.6, 663.3)">e</text><text xml:space="preserve" font-family="HelveticaNeue-Thin,Helvetica Neue" font-size="67.2" fill="#FEFFFE" transform="matrix(1.00, 0.00, -0.00, -1.00, 394.5, 663.3)"> </text><text xml:space="preserve" font-family="HelveticaNeue-Thin,Helvetica Neue" font-size="67.2" fill="#FEFFFE" transform="matrix(1.00, 0.00, -0.00, -1.00, 413.2, 663.3)">d</text><text xml:space="preserve" font-family="HelveticaNeue-Thin,Helvetica Neue" font-size="67.2" fill="#FEFFFE" transform="matrix(1.00, 0.00, -0.00, -1.00, 450.5, 663.3)">r</text><text xml:space="preserve" font-family="HelveticaNeue-Thin,Helvetica Neue" font-size="67.2" fill="#FEFFFE" transform="matrix(1.00, 0.00, -0.00, -1.00, 468.4, 663.3)">o</text><text xml:space="preserve" font-family="HelveticaNeue-Thin,Helvetica Neue" font-size="67.2" fill="#FEFFFE" transform="matrix(1.00, 0.00, -0.00, -1.00, 504.5, 663.3)">p</text><text xml:space="preserve" font-family="HelveticaNeue-Thin,Helvetica Neue" font-size="67.2" fill="#FEFFFE" transform="matrix(1.00, 0.00, -0.00, -1.00, 541.9, 663.3)">-</text><text xml:space="preserve" font-family="HelveticaNeue-Thin,Helvetica Neue" font-size="67.2" fill="#FEFFFE" transform="matrix(1.00, 0.00, -0.00, -1.00, 565.5, 663.3)">o</text><text xml:space="preserve" font-family="HelveticaNeue-Thin,Helvetica Neue" font-size="67.2" fill="#FEFFFE" transform="matrix(1.00, 0.00, -0.00, -1.00, 601.6, 663.3)">ﬀ</text><text xml:space="preserve" font-family="HelveticaNeue-Thin,Helvetica Neue" font-size="67.2" fill="#FEFFFE" transform="matrix(1.00, 0.00, -0.00, -1.00, 631.7, 663.3)"> </text><text xml:space="preserve" font-family="HelveticaNeue-Thin,Helvetica Neue" font-size="67.2" fill="#FEFFFE" transform="matrix(1.00, 0.00, -0.00, -1.00, 650.4, 663.3)">a</text><text xml:space="preserve" font-family="HelveticaNeue-Thin,Helvetica Neue" font-size="67.2" fill="#FEFFFE" transform="matrix(1.00, 0.00, -0.00, -1.00, 684.0, 663.3)">f</text><text xml:space="preserve" font-family="HelveticaNeue-Thin,Helvetica Neue" font-size="67.2" fill="#FEFFFE" transform="matrix(1.00, 0.00, -0.00, -1.00, 700.2, 663.3)">t</text><text xml:space="preserve" font-family="HelveticaNeue-Thin,Helvetica Neue" font-size="67.2" fill="#FEFFFE" transform="matrix(1.00, 0.00, -0.00, -1.00, 716.7, 663.3)">e</text><text xml:space="preserve" font-family="HelveticaNeue-Thin,Helvetica Neue" font-size="67.2" fill="#FEFFFE" transform="matrix(1.00, 0.00, -0.00, -1.00, 751.5, 663.3)">r</text><text xml:space="preserve" font-family="HelveticaNeue-Thin,Helvetica Neue" font-size="67.2" fill="#FEFFFE" transform="matrix(1.00, 0.00, -0.00, -1.00, 770.2, 663.3)"> </text><text xml:space="preserve" font-family="HelveticaNeue-Thin,Helvetica Neue" font-size="67.2" fill="#FEFFFE" transform="matrix(1.00, 0.00, -0.00, -1.00, 788.9, 663.3)"> </text><text xml:space="preserve" font-family="HelveticaNeue-Thin,Helvetica Neue" font-size="67.2" fill="#FEFFFE" transform="matrix(1.00, 0.00, -0.00, -1.00, 247.7, 582.3)">f</text><text xml:space="preserve" font-family="HelveticaNeue-Thin,Helvetica Neue" font-size="67.2" fill="#FEFFFE" transform="matrix(1.00, 0.00, -0.00, -1.00, 263.9, 582.3)">r</text><text xml:space="preserve" font-family="HelveticaNeue-Thin,Helvetica Neue" font-size="67.2" fill="#FEFFFE" transform="matrix(1.00, 0.00, -0.00, -1.00, 281.8, 582.3)">o</text><text xml:space="preserve" font-family="HelveticaNeue-Thin,Helvetica Neue" font-size="67.2" fill="#FEFFFE" transform="matrix(1.00, 0.00, -0.00, -1.00, 317.9, 582.3)">n</text><text xml:space="preserve" font-family="HelveticaNeue-Thin,Helvetica Neue" font-size="67.2" fill="#FEFFFE" transform="matrix(1.00, 0.00, -0.00, -1.00, 352.8, 582.3)">t</text><text xml:space="preserve" font-family="HelveticaNeue-Thin,Helvetica Neue" font-size="67.2" fill="#FEFFFE" transform="matrix(1.00, 0.00, -0.00, -1.00, 370.2, 582.3)">-</text><text xml:space="preserve" font-family="HelveticaNeue-Thin,Helvetica Neue" font-size="67.2" fill="#FEFFFE" transform="matrix(1.00, 0.00, -0.00, -1.00, 393.8, 582.3)">e</text><text xml:space="preserve" font-family="HelveticaNeue-Thin,Helvetica Neue" font-size="67.2" fill="#FEFFFE" transform="matrix(1.00, 0.00, -0.00, -1.00, 428.7, 582.3)">n</text><text xml:space="preserve" font-family="HelveticaNeue-Thin,Helvetica Neue" font-size="67.2" fill="#FEFFFE" transform="matrix(1.00, 0.00, -0.00, -1.00, 463.6, 582.3)">d</text><text xml:space="preserve" font-family="HelveticaNeue-Thin,Helvetica Neue" font-size="67.2" fill="#FEFFFE" transform="matrix(1.00, 0.00, -0.00, -1.00, 500.9, 582.3)"> </text><text xml:space="preserve" font-family="HelveticaNeue-Thin,Helvetica Neue" font-size="67.2" fill="#FEFFFE" transform="matrix(1.00, 0.00, -0.00, -1.00, 519.6, 582.3)">v</text><text xml:space="preserve" font-family="HelveticaNeue-Thin,Helvetica Neue" font-size="67.2" fill="#FEFFFE" transform="matrix(1.00, 0.00, -0.00, -1.00, 549.5, 582.3)">a</text><text xml:space="preserve" font-family="HelveticaNeue-Thin,Helvetica Neue" font-size="67.2" fill="#FEFFFE" transform="matrix(1.00, 0.00, -0.00, -1.00, 583.1, 582.3)">l</text><text xml:space="preserve" font-family="HelveticaNeue-Thin,Helvetica Neue" font-size="67.2" fill="#FEFFFE" transform="matrix(1.00, 0.00, -0.00, -1.00, 594.4, 582.3)">i</text><text xml:space="preserve" font-family="HelveticaNeue-Thin,Helvetica Neue" font-size="67.2" fill="#FEFFFE" transform="matrix(1.00, 0.00, -0.00, -1.00, 605.6, 582.3)">d</text><text xml:space="preserve" font-family="HelveticaNeue-Thin,Helvetica Neue" font-size="67.2" fill="#FEFFFE" transform="matrix(1.00, 0.00, -0.00, -1.00, 643.0, 582.3)">a</text><text xml:space="preserve" font-family="HelveticaNeue-Thin,Helvetica Neue" font-size="67.2" fill="#FEFFFE" transform="matrix(1.00, 0.00, -0.00, -1.00, 676.6, 582.3)">t</text><text xml:space="preserve" font-family="HelveticaNeue-Thin,Helvetica Neue" font-size="67.2" fill="#FEFFFE" transform="matrix(1.00, 0.00, -0.00, -1.00, 694.0, 582.3)">i</text><text xml:space="preserve" font-family="HelveticaNeue-Thin,Helvetica Neue" font-size="67.2" fill="#FEFFFE" transform="matrix(1.00, 0.00, -0.00, -1.00, 705.3, 582.3)">o</text><text xml:space="preserve" font-family="HelveticaNeue-Thin,Helvetica Neue" font-size="67.2" fill="#FEFFFE" transform="matrix(1.00, 0.00, -0.00, -1.00, 741.4, 582.3)">n</text><image xlink:href="../../A4FB4BD7-2B4F-47B0-B56A-6F4BCC4D77A0/assets/83F21833066494F907B86E8B74D63F3C.png" width="1122.00" height="484.00" transform="matrix(0.62, 0.00, -0.00, -0.62, 164.0, 465.1)"></image></g></svg>