<?xml version="1.0" encoding="UTF-8" standalone="no"?><svg xmlns="http://www.w3.org/2000/svg" xmlns:xlink="http://www.w3.org/1999/xlink" clip-rule="evenodd" stroke-miterlimit="10" viewBox="0 0 384 33"><desc>SVG generated by Keynote</desc><defs></defs><g transform="matrix(1.00, 0.00, -0.00, -1.00, 0.0, 33.0)"><text xml:space="preserve" font-family="HelveticaNeue-Thin,Helvetica Neue" font-size="27.0" fill="#000000" transform="matrix(1.00, 0.00, -0.00, -1.00, 0.0, 6.2)">•</text><text xml:space="preserve" font-family="HelveticaNeue-Thin,Helvetica Neue" font-size="36.0" fill="#000000" transform="matrix(1.00, 0.00, -0.00, -1.00, 35.0, 2.7)">d</text><text xml:space="preserve" font-family="HelveticaNeue-Thin,Helvetica Neue" font-size="36.0" fill="#000000" transform="matrix(1.00, 0.00, -0.00, -1.00, 55.0, 2.7)">o</text><text xml:space="preserve" font-family="HelveticaNeue-Thin,Helvetica Neue" font-size="36.0" fill="#000000" transform="matrix(1.00, 0.00, -0.00, -1.00, 74.3, 2.7)">n</text><text xml:space="preserve" font-family="HelveticaNeue-Thin,Helvetica Neue" font-size="36.0" fill="#000000" transform="matrix(1.00, 0.00, -0.00, -1.00, 93.0, 2.7)">’</text><text xml:space="preserve" font-family="HelveticaNeue-Thin,Helvetica Neue" font-size="36.0" fill="#000000" transform="matrix(1.00, 0.00, -0.00, -1.00, 100.4, 2.7)">t</text><text xml:space="preserve" font-family="HelveticaNeue-Thin,Helvetica Neue" font-size="36.0" fill="#000000" transform="matrix(1.00, 0.00, -0.00, -1.00, 109.7, 2.7)"> </text><text xml:space="preserve" font-family="HelveticaNeue-Thin,Helvetica Neue" font-size="36.0" fill="#000000" transform="matrix(1.00, 0.00, -0.00, -1.00, 119.7, 2.7)">l</text><text xml:space="preserve" font-family="HelveticaNeue-Thin,Helvetica Neue" font-size="36.0" fill="#000000" transform="matrix(1.00, 0.00, -0.00, -1.00, 125.8, 2.7)">e</text><text xml:space="preserve" font-family="HelveticaNeue-Thin,Helvetica Neue" font-size="36.0" fill="#000000" transform="matrix(1.00, 0.00, -0.00, -1.00, 144.4, 2.7)">t</text><text xml:space="preserve" font-family="HelveticaNeue-Thin,Helvetica Neue" font-size="36.0" fill="#000000" transform="matrix(1.00, 0.00, -0.00, -1.00, 153.8, 2.7)"> </text><text xml:space="preserve" font-family="HelveticaNeue-Thin,Helvetica Neue" font-size="36.0" fill="#000000" transform="matrix(1.00, 0.00, -0.00, -1.00, 163.8, 2.7)">f</text><text xml:space="preserve" font-family="HelveticaNeue-Thin,Helvetica Neue" font-size="36.0" fill="#000000" transform="matrix(1.00, 0.00, -0.00, -1.00, 172.4, 2.7)">r</text><text xml:space="preserve" font-family="HelveticaNeue-Thin,Helvetica Neue" font-size="36.0" fill="#000000" transform="matrix(1.00, 0.00, -0.00, -1.00, 182.0, 2.7)">e</text><text xml:space="preserve" font-family="HelveticaNeue-Thin,Helvetica Neue" font-size="36.0" fill="#000000" transform="matrix(1.00, 0.00, -0.00, -1.00, 200.7, 2.7)">e</text><text xml:space="preserve" font-family="HelveticaNeue-Thin,Helvetica Neue" font-size="36.0" fill="#000000" transform="matrix(1.00, 0.00, -0.00, -1.00, 219.4, 2.7)"> </text><text xml:space="preserve" font-family="HelveticaNeue-Thin,Helvetica Neue" font-size="36.0" fill="#000000" transform="matrix(1.00, 0.00, -0.00, -1.00, 229.4, 2.7)">r</text><text xml:space="preserve" font-family="HelveticaNeue-Thin,Helvetica Neue" font-size="36.0" fill="#000000" transform="matrix(1.00, 0.00, -0.00, -1.00, 239.4, 2.7)">i</text><text xml:space="preserve" font-family="HelveticaNeue-Thin,Helvetica Neue" font-size="36.0" fill="#000000" transform="matrix(1.00, 0.00, -0.00, -1.00, 245.5, 2.7)">d</text><text xml:space="preserve" font-family="HelveticaNeue-Thin,Helvetica Neue" font-size="36.0" fill="#000000" transform="matrix(1.00, 0.00, -0.00, -1.00, 265.5, 2.7)">e</text><text xml:space="preserve" font-family="HelveticaNeue-Thin,Helvetica Neue" font-size="36.0" fill="#000000" transform="matrix(1.00, 0.00, -0.00, -1.00, 284.2, 2.7)">r</text><text xml:space="preserve" font-family="HelveticaNeue-Thin,Helvetica Neue" font-size="36.0" fill="#000000" transform="matrix(1.00, 0.00, -0.00, -1.00, 294.2, 2.7)">s</text><text xml:space="preserve" font-family="HelveticaNeue-Thin,Helvetica Neue" font-size="36.0" fill="#000000" transform="matrix(1.00, 0.00, -0.00, -1.00, 311.5, 2.7)"> </text><text xml:space="preserve" font-family="HelveticaNeue-Thin,Helvetica Neue" font-size="36.0" fill="#000000" transform="matrix(1.00, 0.00, -0.00, -1.00, 321.5, 2.7)">i</text><text xml:space="preserve" font-family="HelveticaNeue-Thin,Helvetica Neue" font-size="36.0" fill="#000000" transform="matrix(1.00, 0.00, -0.00, -1.00, 327.5, 2.7)">n</text><text xml:space="preserve" font-family="HelveticaNeue-Thin,Helvetica Neue" font-size="36.0" fill="#000000" transform="matrix(1.00, 0.00, -0.00, -1.00, 346.2, 2.7)">…</text><text xml:space="preserve" font-family="HelveticaNeue-Thin,Helvetica Neue" font-size="36.0" fill="#000000" transform="matrix(1.00, 0.00, -0.00, -1.00, 382.2, 2.7)"> </text></g></svg>