<?xml version="1.0" encoding="UTF-8" standalone="no"?><svg xmlns="http://www.w3.org/2000/svg" xmlns:xlink="http://www.w3.org/1999/xlink" clip-rule="evenodd" stroke-miterlimit="10" viewBox="0 0 1024 768"><desc>SVG generated by Keynote</desc><defs></defs><g transform="matrix(1.00, 0.00, -0.00, -1.00, 0.0, 768.0)"><path d="M 0.0 768.0 L 1024.0 768.0 L 1024.0 0.0 L 0.0 0.0 Z M 0.0 768.0 " fill="#FEFFFF"></path><text xml:space="preserve" font-family="HelveticaNeue-Light,Helvetica Neue" font-size="72.0" fill="#000000" transform="matrix(1.00, 0.00, -0.00, -1.00, 153.9, 631.4)">f</text><text xml:space="preserve" font-family="HelveticaNeue-Light,Helvetica Neue" font-size="72.0" fill="#000000" transform="matrix(1.00, 0.00, -0.00, -1.00, 172.6, 631.4)">o</text><text xml:space="preserve" font-family="HelveticaNeue-Light,Helvetica Neue" font-size="72.0" fill="#000000" transform="matrix(1.00, 0.00, -0.00, -1.00, 212.6, 631.4)">c</text><text xml:space="preserve" font-family="HelveticaNeue-Light,Helvetica Neue" font-size="72.0" fill="#000000" transform="matrix(1.00, 0.00, -0.00, -1.00, 250.0, 631.4)">u</text><text xml:space="preserve" font-family="HelveticaNeue-Light,Helvetica Neue" font-size="72.0" fill="#000000" transform="matrix(1.00, 0.00, -0.00, -1.00, 288.6, 631.4)">s</text><text xml:space="preserve" font-family="HelveticaNeue-Light,Helvetica Neue" font-size="72.0" fill="#000000" transform="matrix(1.00, 0.00, -0.00, -1.00, 323.3, 631.4)">i</text><text xml:space="preserve" font-family="HelveticaNeue-Light,Helvetica Neue" font-size="72.0" fill="#000000" transform="matrix(1.00, 0.00, -0.00, -1.00, 336.6, 631.4)">n</text><text xml:space="preserve" font-family="HelveticaNeue-Light,Helvetica Neue" font-size="72.0" fill="#000000" transform="matrix(1.00, 0.00, -0.00, -1.00, 375.2, 631.4)">g</text><text xml:space="preserve" font-family="HelveticaNeue-Light,Helvetica Neue" font-size="72.0" fill="#000000" transform="matrix(1.00, 0.00, -0.00, -1.00, 415.3, 631.4)"> </text><text xml:space="preserve" font-family="HelveticaNeue-Light,Helvetica Neue" font-size="72.0" fill="#000000" transform="matrix(1.00, 0.00, -0.00, -1.00, 435.3, 631.4)">o</text><text xml:space="preserve" font-family="HelveticaNeue-Light,Helvetica Neue" font-size="72.0" fill="#000000" transform="matrix(1.00, 0.00, -0.00, -1.00, 475.3, 631.4)">n</text><text xml:space="preserve" font-family="HelveticaNeue-Light,Helvetica Neue" font-size="72.0" fill="#000000" transform="matrix(1.00, 0.00, -0.00, -1.00, 514.0, 631.4)"> </text><text xml:space="preserve" font-family="HelveticaNeue-Light,Helvetica Neue" font-size="72.0" fill="#000000" transform="matrix(1.00, 0.00, -0.00, -1.00, 534.0, 631.4)">c</text><text xml:space="preserve" font-family="HelveticaNeue-Light,Helvetica Neue" font-size="72.0" fill="#000000" transform="matrix(1.00, 0.00, -0.00, -1.00, 571.4, 631.4)">o</text><text xml:space="preserve" font-family="HelveticaNeue-Light,Helvetica Neue" font-size="72.0" fill="#000000" transform="matrix(1.00, 0.00, -0.00, -1.00, 611.4, 631.4)">n</text><text xml:space="preserve" font-family="HelveticaNeue-Light,Helvetica Neue" font-size="72.0" fill="#000000" transform="matrix(1.00, 0.00, -0.00, -1.00, 650.1, 631.4)">v</text><text xml:space="preserve" font-family="HelveticaNeue-Light,Helvetica Neue" font-size="72.0" fill="#000000" transform="matrix(1.00, 0.00, -0.00, -1.00, 683.4, 631.4)">e</text><text xml:space="preserve" font-family="HelveticaNeue-Light,Helvetica Neue" font-size="72.0" fill="#000000" transform="matrix(1.00, 0.00, -0.00, -1.00, 720.8, 631.4)">r</text><text xml:space="preserve" font-family="HelveticaNeue-Light,Helvetica Neue" font-size="72.0" fill="#000000" transform="matrix(1.00, 0.00, -0.00, -1.00, 743.4, 631.4)">s</text><text xml:space="preserve" font-family="HelveticaNeue-Light,Helvetica Neue" font-size="72.0" fill="#000000" transform="matrix(1.00, 0.00, -0.00, -1.00, 778.1, 631.4)">i</text><text xml:space="preserve" font-family="HelveticaNeue-Light,Helvetica Neue" font-size="72.0" fill="#000000" transform="matrix(1.00, 0.00, -0.00, -1.00, 791.4, 631.4)">o</text><text xml:space="preserve" font-family="HelveticaNeue-Light,Helvetica Neue" font-size="72.0" fill="#000000" transform="matrix(1.00, 0.00, -0.00, -1.00, 831.4, 631.4)">n</text><text xml:space="preserve" font-family="HelveticaNeue-Thin,Helvetica Neue" font-size="31.5" fill="#000000" transform="matrix(1.00, 0.00, -0.00, -1.00, 85.5, 463.8)">•</text><text xml:space="preserve" font-family="HelveticaNeue-Medium,Helvetica Neue" font-size="42.0" fill="#000000" transform="matrix(1.00, 0.00, -0.00, -1.00, 126.3, 459.8)">ﬁ</text><text xml:space="preserve" font-family="HelveticaNeue-Medium,Helvetica Neue" font-size="42.0" fill="#000000" transform="matrix(1.00, 0.00, -0.00, -1.00, 149.7, 459.8)">r</text><text xml:space="preserve" font-family="HelveticaNeue-Medium,Helvetica Neue" font-size="42.0" fill="#000000" transform="matrix(1.00, 0.00, -0.00, -1.00, 164.5, 459.8)">s</text><text xml:space="preserve" font-family="HelveticaNeue-Medium,Helvetica Neue" font-size="42.0" fill="#000000" transform="matrix(1.00, 0.00, -0.00, -1.00, 186.3, 459.8)">t</text><text xml:space="preserve" font-family="HelveticaNeue-Medium,Helvetica Neue" font-size="42.0" fill="#000000" transform="matrix(1.00, 0.00, -0.00, -1.00, 200.3, 459.8)"> </text><text xml:space="preserve" font-family="HelveticaNeue-Medium,Helvetica Neue" font-size="42.0" fill="#000000" transform="matrix(1.00, 0.00, -0.00, -1.00, 211.9, 459.8)">i</text><text xml:space="preserve" font-family="HelveticaNeue-Medium,Helvetica Neue" font-size="42.0" fill="#000000" transform="matrix(1.00, 0.00, -0.00, -1.00, 222.1, 459.8)">m</text><text xml:space="preserve" font-family="HelveticaNeue-Medium,Helvetica Neue" font-size="42.0" fill="#000000" transform="matrix(1.00, 0.00, -0.00, -1.00, 258.6, 459.8)">p</text><text xml:space="preserve" font-family="HelveticaNeue-Medium,Helvetica Neue" font-size="42.0" fill="#000000" transform="matrix(1.00, 0.00, -0.00, -1.00, 284.3, 459.8)">r</text><text xml:space="preserve" font-family="HelveticaNeue-Medium,Helvetica Neue" font-size="42.0" fill="#000000" transform="matrix(1.00, 0.00, -0.00, -1.00, 298.3, 459.8)">e</text><text xml:space="preserve" font-family="HelveticaNeue-Medium,Helvetica Neue" font-size="42.0" fill="#000000" transform="matrix(1.00, 0.00, -0.00, -1.00, 321.6, 459.8)">s</text><text xml:space="preserve" font-family="HelveticaNeue-Medium,Helvetica Neue" font-size="42.0" fill="#000000" transform="matrix(1.00, 0.00, -0.00, -1.00, 343.4, 459.8)">s</text><text xml:space="preserve" font-family="HelveticaNeue-Medium,Helvetica Neue" font-size="42.0" fill="#000000" transform="matrix(1.00, 0.00, -0.00, -1.00, 365.2, 459.8)">i</text><text xml:space="preserve" font-family="HelveticaNeue-Medium,Helvetica Neue" font-size="42.0" fill="#000000" transform="matrix(1.00, 0.00, -0.00, -1.00, 375.4, 459.8)">o</text><text xml:space="preserve" font-family="HelveticaNeue-Medium,Helvetica Neue" font-size="42.0" fill="#000000" transform="matrix(1.00, 0.00, -0.00, -1.00, 400.3, 459.8)">n</text><text xml:space="preserve" font-family="HelveticaNeue-Medium,Helvetica Neue" font-size="42.0" fill="#000000" transform="matrix(1.00, 0.00, -0.00, -1.00, 424.4, 459.8)"> </text><text xml:space="preserve" font-family="LucidaGrande,Lucida Grande" font-size="42.0" fill="#000000" transform="matrix(1.00, 0.00, -0.00, -1.00, 436.0, 459.8)"> </text><text xml:space="preserve" font-family="HelveticaNeue-Thin,Helvetica Neue" font-size="42.0" fill="#000000" transform="matrix(1.00, 0.00, -0.00, -1.00, 126.3, 408.6)">~</text><text xml:space="preserve" font-family="HelveticaNeue-Thin,Helvetica Neue" font-size="42.0" fill="#000000" transform="matrix(1.00, 0.00, -0.00, -1.00, 151.5, 408.6)">3</text><text xml:space="preserve" font-family="HelveticaNeue-Thin,Helvetica Neue" font-size="42.0" fill="#000000" transform="matrix(1.00, 0.00, -0.00, -1.00, 174.9, 408.6)"> </text><text xml:space="preserve" font-family="HelveticaNeue-Thin,Helvetica Neue" font-size="42.0" fill="#000000" transform="matrix(1.00, 0.00, -0.00, -1.00, 186.6, 408.6)">s</text><text xml:space="preserve" font-family="HelveticaNeue-Thin,Helvetica Neue" font-size="42.0" fill="#000000" transform="matrix(1.00, 0.00, -0.00, -1.00, 206.8, 408.6)">e</text><text xml:space="preserve" font-family="HelveticaNeue-Thin,Helvetica Neue" font-size="42.0" fill="#000000" transform="matrix(1.00, 0.00, -0.00, -1.00, 228.6, 408.6)">c</text><text xml:space="preserve" font-family="HelveticaNeue-Thin,Helvetica Neue" font-size="42.0" fill="#000000" transform="matrix(1.00, 0.00, -0.00, -1.00, 250.4, 408.6)">o</text><text xml:space="preserve" font-family="HelveticaNeue-Thin,Helvetica Neue" font-size="42.0" fill="#000000" transform="matrix(1.00, 0.00, -0.00, -1.00, 272.9, 408.6)">n</text><text xml:space="preserve" font-family="HelveticaNeue-Thin,Helvetica Neue" font-size="42.0" fill="#000000" transform="matrix(1.00, 0.00, -0.00, -1.00, 294.7, 408.6)">d</text><text xml:space="preserve" font-family="HelveticaNeue-Thin,Helvetica Neue" font-size="42.0" fill="#000000" transform="matrix(1.00, 0.00, -0.00, -1.00, 318.1, 408.6)">s</text><text xml:space="preserve" font-family="HelveticaNeue-Thin,Helvetica Neue" font-size="42.0" fill="#000000" transform="matrix(1.00, 0.00, -0.00, -1.00, 338.3, 408.6)"> </text><text xml:space="preserve" font-family="HelveticaNeue-Thin,Helvetica Neue" font-size="42.0" fill="#000000" transform="matrix(1.00, 0.00, -0.00, -1.00, 349.9, 408.6)">a</text><text xml:space="preserve" font-family="HelveticaNeue-Thin,Helvetica Neue" font-size="42.0" fill="#000000" transform="matrix(1.00, 0.00, -0.00, -1.00, 370.9, 408.6)">t</text><text xml:space="preserve" font-family="HelveticaNeue-Thin,Helvetica Neue" font-size="42.0" fill="#000000" transform="matrix(1.00, 0.00, -0.00, -1.00, 381.8, 408.6)">t</text><text xml:space="preserve" font-family="HelveticaNeue-Thin,Helvetica Neue" font-size="42.0" fill="#000000" transform="matrix(1.00, 0.00, -0.00, -1.00, 392.1, 408.6)">e</text><text xml:space="preserve" font-family="HelveticaNeue-Thin,Helvetica Neue" font-size="42.0" fill="#000000" transform="matrix(1.00, 0.00, -0.00, -1.00, 413.9, 408.6)">n</text><text xml:space="preserve" font-family="HelveticaNeue-Thin,Helvetica Neue" font-size="42.0" fill="#000000" transform="matrix(1.00, 0.00, -0.00, -1.00, 435.7, 408.6)">t</text><text xml:space="preserve" font-family="HelveticaNeue-Thin,Helvetica Neue" font-size="42.0" fill="#000000" transform="matrix(1.00, 0.00, -0.00, -1.00, 446.6, 408.6)">i</text><text xml:space="preserve" font-family="HelveticaNeue-Thin,Helvetica Neue" font-size="42.0" fill="#000000" transform="matrix(1.00, 0.00, -0.00, -1.00, 453.6, 408.6)">o</text><text xml:space="preserve" font-family="HelveticaNeue-Thin,Helvetica Neue" font-size="42.0" fill="#000000" transform="matrix(1.00, 0.00, -0.00, -1.00, 476.2, 408.6)">n</text><text xml:space="preserve" font-family="HelveticaNeue-Thin,Helvetica Neue" font-size="42.0" fill="#000000" transform="matrix(1.00, 0.00, -0.00, -1.00, 498.0, 408.6)"> </text><text xml:space="preserve" font-family="HelveticaNeue-Thin,Helvetica Neue" font-size="42.0" fill="#000000" transform="matrix(1.00, 0.00, -0.00, -1.00, 509.7, 408.6)">s</text><text xml:space="preserve" font-family="HelveticaNeue-Thin,Helvetica Neue" font-size="42.0" fill="#000000" transform="matrix(1.00, 0.00, -0.00, -1.00, 529.9, 408.6)">p</text><text xml:space="preserve" font-family="HelveticaNeue-Thin,Helvetica Neue" font-size="42.0" fill="#000000" transform="matrix(1.00, 0.00, -0.00, -1.00, 553.2, 408.6)">a</text><text xml:space="preserve" font-family="HelveticaNeue-Thin,Helvetica Neue" font-size="42.0" fill="#000000" transform="matrix(1.00, 0.00, -0.00, -1.00, 574.2, 408.6)">n</text><text xml:space="preserve" font-family="HelveticaNeue-Thin,Helvetica Neue" font-size="31.5" fill="#000000" transform="matrix(1.00, 0.00, -0.00, -1.00, 85.5, 337.6)">•</text><text xml:space="preserve" font-family="HelveticaNeue-Medium,Helvetica Neue" font-size="42.0" fill="#000000" transform="matrix(1.00, 0.00, -0.00, -1.00, 126.3, 333.6)">r</text><text xml:space="preserve" font-family="HelveticaNeue-Medium,Helvetica Neue" font-size="42.0" fill="#000000" transform="matrix(1.00, 0.00, -0.00, -1.00, 140.4, 333.6)">e</text><text xml:space="preserve" font-family="HelveticaNeue-Medium,Helvetica Neue" font-size="42.0" fill="#000000" transform="matrix(1.00, 0.00, -0.00, -1.00, 163.7, 333.6)">s</text><text xml:space="preserve" font-family="HelveticaNeue-Medium,Helvetica Neue" font-size="42.0" fill="#000000" transform="matrix(1.00, 0.00, -0.00, -1.00, 185.5, 333.6)">p</text><text xml:space="preserve" font-family="HelveticaNeue-Medium,Helvetica Neue" font-size="42.0" fill="#000000" transform="matrix(1.00, 0.00, -0.00, -1.00, 211.2, 333.6)">o</text><text xml:space="preserve" font-family="HelveticaNeue-Medium,Helvetica Neue" font-size="42.0" fill="#000000" transform="matrix(1.00, 0.00, -0.00, -1.00, 236.1, 333.6)">n</text><text xml:space="preserve" font-family="HelveticaNeue-Medium,Helvetica Neue" font-size="42.0" fill="#000000" transform="matrix(1.00, 0.00, -0.00, -1.00, 260.2, 333.6)">s</text><text xml:space="preserve" font-family="HelveticaNeue-Medium,Helvetica Neue" font-size="42.0" fill="#000000" transform="matrix(1.00, 0.00, -0.00, -1.00, 282.0, 333.6)">i</text><text xml:space="preserve" font-family="HelveticaNeue-Medium,Helvetica Neue" font-size="42.0" fill="#000000" transform="matrix(1.00, 0.00, -0.00, -1.00, 292.1, 333.6)">v</text><text xml:space="preserve" font-family="HelveticaNeue-Medium,Helvetica Neue" font-size="42.0" fill="#000000" transform="matrix(1.00, 0.00, -0.00, -1.00, 313.9, 333.6)">e</text><text xml:space="preserve" font-family="LucidaGrande,Lucida Grande" font-size="42.0" fill="#000000" transform="matrix(1.00, 0.00, -0.00, -1.00, 337.3, 333.6)"> </text><text xml:space="preserve" font-family="HelveticaNeue-Thin,Helvetica Neue" font-size="42.0" fill="#000000" transform="matrix(1.00, 0.00, -0.00, -1.00, 126.3, 282.4)">n</text><text xml:space="preserve" font-family="HelveticaNeue-Thin,Helvetica Neue" font-size="42.0" fill="#000000" transform="matrix(1.00, 0.00, -0.00, -1.00, 148.1, 282.4)">e</text><text xml:space="preserve" font-family="HelveticaNeue-Thin,Helvetica Neue" font-size="42.0" fill="#000000" transform="matrix(1.00, 0.00, -0.00, -1.00, 169.9, 282.4)">e</text><text xml:space="preserve" font-family="HelveticaNeue-Thin,Helvetica Neue" font-size="42.0" fill="#000000" transform="matrix(1.00, 0.00, -0.00, -1.00, 191.7, 282.4)">d</text><text xml:space="preserve" font-family="HelveticaNeue-Thin,Helvetica Neue" font-size="42.0" fill="#000000" transform="matrix(1.00, 0.00, -0.00, -1.00, 215.1, 282.4)">s</text><text xml:space="preserve" font-family="HelveticaNeue-Thin,Helvetica Neue" font-size="42.0" fill="#000000" transform="matrix(1.00, 0.00, -0.00, -1.00, 235.3, 282.4)"> </text><text xml:space="preserve" font-family="HelveticaNeue-Thin,Helvetica Neue" font-size="42.0" fill="#000000" transform="matrix(1.00, 0.00, -0.00, -1.00, 247.0, 282.4)">t</text><text xml:space="preserve" font-family="HelveticaNeue-Thin,Helvetica Neue" font-size="42.0" fill="#000000" transform="matrix(1.00, 0.00, -0.00, -1.00, 257.2, 282.4)">o</text><text xml:space="preserve" font-family="HelveticaNeue-Thin,Helvetica Neue" font-size="42.0" fill="#000000" transform="matrix(1.00, 0.00, -0.00, -1.00, 279.8, 282.4)"> </text><text xml:space="preserve" font-family="HelveticaNeue-Thin,Helvetica Neue" font-size="42.0" fill="#000000" transform="matrix(1.00, 0.00, -0.00, -1.00, 291.5, 282.4)">a</text><text xml:space="preserve" font-family="HelveticaNeue-Thin,Helvetica Neue" font-size="42.0" fill="#000000" transform="matrix(1.00, 0.00, -0.00, -1.00, 312.5, 282.4)">d</text><text xml:space="preserve" font-family="HelveticaNeue-Thin,Helvetica Neue" font-size="42.0" fill="#000000" transform="matrix(1.00, 0.00, -0.00, -1.00, 335.8, 282.4)">a</text><text xml:space="preserve" font-family="HelveticaNeue-Thin,Helvetica Neue" font-size="42.0" fill="#000000" transform="matrix(1.00, 0.00, -0.00, -1.00, 356.8, 282.4)">p</text><text xml:space="preserve" font-family="HelveticaNeue-Thin,Helvetica Neue" font-size="42.0" fill="#000000" transform="matrix(1.00, 0.00, -0.00, -1.00, 380.2, 282.4)">t</text><text xml:space="preserve" font-family="HelveticaNeue-Thin,Helvetica Neue" font-size="42.0" fill="#000000" transform="matrix(1.00, 0.00, -0.00, -1.00, 391.1, 282.4)"> </text><text xml:space="preserve" font-family="HelveticaNeue-Thin,Helvetica Neue" font-size="42.0" fill="#000000" transform="matrix(1.00, 0.00, -0.00, -1.00, 402.7, 282.4)">a</text><text xml:space="preserve" font-family="HelveticaNeue-Thin,Helvetica Neue" font-size="42.0" fill="#000000" transform="matrix(1.00, 0.00, -0.00, -1.00, 423.7, 282.4)">l</text><text xml:space="preserve" font-family="HelveticaNeue-Thin,Helvetica Neue" font-size="42.0" fill="#000000" transform="matrix(1.00, 0.00, -0.00, -1.00, 430.8, 282.4)">l</text><text xml:space="preserve" font-family="HelveticaNeue-Thin,Helvetica Neue" font-size="42.0" fill="#000000" transform="matrix(1.00, 0.00, -0.00, -1.00, 437.8, 282.4)"> </text><text xml:space="preserve" font-family="HelveticaNeue-Thin,Helvetica Neue" font-size="42.0" fill="#000000" transform="matrix(1.00, 0.00, -0.00, -1.00, 449.5, 282.4)">d</text><text xml:space="preserve" font-family="HelveticaNeue-Thin,Helvetica Neue" font-size="42.0" fill="#000000" transform="matrix(1.00, 0.00, -0.00, -1.00, 472.9, 282.4)">e</text><text xml:space="preserve" font-family="HelveticaNeue-Thin,Helvetica Neue" font-size="42.0" fill="#000000" transform="matrix(1.00, 0.00, -0.00, -1.00, 494.7, 282.4)">v</text><text xml:space="preserve" font-family="HelveticaNeue-Thin,Helvetica Neue" font-size="42.0" fill="#000000" transform="matrix(1.00, 0.00, -0.00, -1.00, 513.3, 282.4)">i</text><text xml:space="preserve" font-family="HelveticaNeue-Thin,Helvetica Neue" font-size="42.0" fill="#000000" transform="matrix(1.00, 0.00, -0.00, -1.00, 520.4, 282.4)">c</text><text xml:space="preserve" font-family="HelveticaNeue-Thin,Helvetica Neue" font-size="42.0" fill="#000000" transform="matrix(1.00, 0.00, -0.00, -1.00, 542.2, 282.4)">e</text><text xml:space="preserve" font-family="HelveticaNeue-Thin,Helvetica Neue" font-size="42.0" fill="#000000" transform="matrix(1.00, 0.00, -0.00, -1.00, 564.0, 282.4)">s</text><text xml:space="preserve" font-family="HelveticaNeue-Thin,Helvetica Neue" font-size="31.5" fill="#000000" transform="matrix(1.00, 0.00, -0.00, -1.00, 85.5, 211.5)">•</text><text xml:space="preserve" font-family="HelveticaNeue-Medium,Helvetica Neue" font-size="42.0" fill="#000000" transform="matrix(1.00, 0.00, -0.00, -1.00, 126.3, 207.4)">h</text><text xml:space="preserve" font-family="HelveticaNeue-Medium,Helvetica Neue" font-size="42.0" fill="#000000" transform="matrix(1.00, 0.00, -0.00, -1.00, 150.4, 207.4)">i</text><text xml:space="preserve" font-family="HelveticaNeue-Medium,Helvetica Neue" font-size="42.0" fill="#000000" transform="matrix(1.00, 0.00, -0.00, -1.00, 160.6, 207.4)">g</text><text xml:space="preserve" font-family="HelveticaNeue-Medium,Helvetica Neue" font-size="42.0" fill="#000000" transform="matrix(1.00, 0.00, -0.00, -1.00, 185.5, 207.4)">h</text><text xml:space="preserve" font-family="HelveticaNeue-Medium,Helvetica Neue" font-size="42.0" fill="#000000" transform="matrix(1.00, 0.00, -0.00, -1.00, 209.6, 207.4)"> </text><text xml:space="preserve" font-family="HelveticaNeue-Medium,Helvetica Neue" font-size="42.0" fill="#000000" transform="matrix(1.00, 0.00, -0.00, -1.00, 221.3, 207.4)">p</text><text xml:space="preserve" font-family="HelveticaNeue-Medium,Helvetica Neue" font-size="42.0" fill="#000000" transform="matrix(1.00, 0.00, -0.00, -1.00, 246.9, 207.4)">e</text><text xml:space="preserve" font-family="HelveticaNeue-Medium,Helvetica Neue" font-size="42.0" fill="#000000" transform="matrix(1.00, 0.00, -0.00, -1.00, 270.3, 207.4)">r</text><text xml:space="preserve" font-family="HelveticaNeue-Medium,Helvetica Neue" font-size="42.0" fill="#000000" transform="matrix(1.00, 0.00, -0.00, -1.00, 285.1, 207.4)">f</text><text xml:space="preserve" font-family="HelveticaNeue-Medium,Helvetica Neue" font-size="42.0" fill="#000000" transform="matrix(1.00, 0.00, -0.00, -1.00, 298.3, 207.4)">o</text><text xml:space="preserve" font-family="HelveticaNeue-Medium,Helvetica Neue" font-size="42.0" fill="#000000" transform="matrix(1.00, 0.00, -0.00, -1.00, 323.2, 207.4)">r</text><text xml:space="preserve" font-family="HelveticaNeue-Medium,Helvetica Neue" font-size="42.0" fill="#000000" transform="matrix(1.00, 0.00, -0.00, -1.00, 338.0, 207.4)">m</text><text xml:space="preserve" font-family="HelveticaNeue-Medium,Helvetica Neue" font-size="42.0" fill="#000000" transform="matrix(1.00, 0.00, -0.00, -1.00, 374.5, 207.4)">a</text><text xml:space="preserve" font-family="HelveticaNeue-Medium,Helvetica Neue" font-size="42.0" fill="#000000" transform="matrix(1.00, 0.00, -0.00, -1.00, 397.9, 207.4)">n</text><text xml:space="preserve" font-family="HelveticaNeue-Medium,Helvetica Neue" font-size="42.0" fill="#000000" transform="matrix(1.00, 0.00, -0.00, -1.00, 422.0, 207.4)">c</text><text xml:space="preserve" font-family="HelveticaNeue-Medium,Helvetica Neue" font-size="42.0" fill="#000000" transform="matrix(1.00, 0.00, -0.00, -1.00, 445.3, 207.4)">e</text><text xml:space="preserve" font-family="LucidaGrande,Lucida Grande" font-size="42.0" fill="#000000" transform="matrix(1.00, 0.00, -0.00, -1.00, 468.7, 207.4)"> </text><text xml:space="preserve" font-family="HelveticaNeue-Thin,Helvetica Neue" font-size="42.0" fill="#000000" transform="matrix(1.00, 0.00, -0.00, -1.00, 126.3, 156.3)">s</text><text xml:space="preserve" font-family="HelveticaNeue-Thin,Helvetica Neue" font-size="42.0" fill="#000000" transform="matrix(1.00, 0.00, -0.00, -1.00, 146.5, 156.3)">m</text><text xml:space="preserve" font-family="HelveticaNeue-Thin,Helvetica Neue" font-size="42.0" fill="#000000" transform="matrix(1.00, 0.00, -0.00, -1.00, 180.0, 156.3)">a</text><text xml:space="preserve" font-family="HelveticaNeue-Thin,Helvetica Neue" font-size="42.0" fill="#000000" transform="matrix(1.00, 0.00, -0.00, -1.00, 201.0, 156.3)">l</text><text xml:space="preserve" font-family="HelveticaNeue-Thin,Helvetica Neue" font-size="42.0" fill="#000000" transform="matrix(1.00, 0.00, -0.00, -1.00, 208.0, 156.3)">l</text><text xml:space="preserve" font-family="HelveticaNeue-Thin,Helvetica Neue" font-size="42.0" fill="#000000" transform="matrix(1.00, 0.00, -0.00, -1.00, 215.1, 156.3)"> </text><text xml:space="preserve" font-family="HelveticaNeue-Thin,Helvetica Neue" font-size="42.0" fill="#000000" transform="matrix(1.00, 0.00, -0.00, -1.00, 226.8, 156.3)">f</text><text xml:space="preserve" font-family="HelveticaNeue-Thin,Helvetica Neue" font-size="42.0" fill="#000000" transform="matrix(1.00, 0.00, -0.00, -1.00, 236.9, 156.3)">o</text><text xml:space="preserve" font-family="HelveticaNeue-Thin,Helvetica Neue" font-size="42.0" fill="#000000" transform="matrix(1.00, 0.00, -0.00, -1.00, 259.4, 156.3)">o</text><text xml:space="preserve" font-family="HelveticaNeue-Thin,Helvetica Neue" font-size="42.0" fill="#000000" transform="matrix(1.00, 0.00, -0.00, -1.00, 282.0, 156.3)">t</text><text xml:space="preserve" font-family="HelveticaNeue-Thin,Helvetica Neue" font-size="42.0" fill="#000000" transform="matrix(1.00, 0.00, -0.00, -1.00, 292.9, 156.3)">p</text><text xml:space="preserve" font-family="HelveticaNeue-Thin,Helvetica Neue" font-size="42.0" fill="#000000" transform="matrix(1.00, 0.00, -0.00, -1.00, 316.2, 156.3)">r</text><text xml:space="preserve" font-family="HelveticaNeue-Thin,Helvetica Neue" font-size="42.0" fill="#000000" transform="matrix(1.00, 0.00, -0.00, -1.00, 327.9, 156.3)">i</text><text xml:space="preserve" font-family="HelveticaNeue-Thin,Helvetica Neue" font-size="42.0" fill="#000000" transform="matrix(1.00, 0.00, -0.00, -1.00, 334.9, 156.3)">n</text><text xml:space="preserve" font-family="HelveticaNeue-Thin,Helvetica Neue" font-size="42.0" fill="#000000" transform="matrix(1.00, 0.00, -0.00, -1.00, 356.7, 156.3)">t</text><text xml:space="preserve" font-family="HelveticaNeue-Thin,Helvetica Neue" font-size="42.0" fill="#000000" transform="matrix(1.00, 0.00, -0.00, -1.00, 367.6, 156.3)"> </text><text xml:space="preserve" font-family="HelveticaNeue-Thin,Helvetica Neue" font-size="42.0" fill="#000000" transform="matrix(1.00, 0.00, -0.00, -1.00, 379.3, 156.3)">a</text><text xml:space="preserve" font-family="HelveticaNeue-Thin,Helvetica Neue" font-size="42.0" fill="#000000" transform="matrix(1.00, 0.00, -0.00, -1.00, 400.3, 156.3)">n</text><text xml:space="preserve" font-family="HelveticaNeue-Thin,Helvetica Neue" font-size="42.0" fill="#000000" transform="matrix(1.00, 0.00, -0.00, -1.00, 422.1, 156.3)">d</text><text xml:space="preserve" font-family="HelveticaNeue-Thin,Helvetica Neue" font-size="42.0" fill="#000000" transform="matrix(1.00, 0.00, -0.00, -1.00, 445.4, 156.3)"> </text><text xml:space="preserve" font-family="HelveticaNeue-Thin,Helvetica Neue" font-size="42.0" fill="#000000" transform="matrix(1.00, 0.00, -0.00, -1.00, 457.1, 156.3)">f</text><text xml:space="preserve" font-family="HelveticaNeue-Thin,Helvetica Neue" font-size="42.0" fill="#000000" transform="matrix(1.00, 0.00, -0.00, -1.00, 467.2, 156.3)">a</text><text xml:space="preserve" font-family="HelveticaNeue-Thin,Helvetica Neue" font-size="42.0" fill="#000000" transform="matrix(1.00, 0.00, -0.00, -1.00, 488.2, 156.3)">s</text><text xml:space="preserve" font-family="HelveticaNeue-Thin,Helvetica Neue" font-size="42.0" fill="#000000" transform="matrix(1.00, 0.00, -0.00, -1.00, 508.4, 156.3)">t</text><text xml:space="preserve" font-family="HelveticaNeue-Thin,Helvetica Neue" font-size="42.0" fill="#000000" transform="matrix(1.00, 0.00, -0.00, -1.00, 519.3, 156.3)"> </text><text xml:space="preserve" font-family="HelveticaNeue-Thin,Helvetica Neue" font-size="42.0" fill="#000000" transform="matrix(1.00, 0.00, -0.00, -1.00, 531.0, 156.3)">l</text><text xml:space="preserve" font-family="HelveticaNeue-Thin,Helvetica Neue" font-size="42.0" fill="#000000" transform="matrix(1.00, 0.00, -0.00, -1.00, 538.1, 156.3)">o</text><text xml:space="preserve" font-family="HelveticaNeue-Thin,Helvetica Neue" font-size="42.0" fill="#000000" transform="matrix(1.00, 0.00, -0.00, -1.00, 560.6, 156.3)">a</text><text xml:space="preserve" font-family="HelveticaNeue-Thin,Helvetica Neue" font-size="42.0" fill="#000000" transform="matrix(1.00, 0.00, -0.00, -1.00, 581.6, 156.3)">d</text><text xml:space="preserve" font-family="HelveticaNeue-Thin,Helvetica Neue" font-size="42.0" fill="#000000" transform="matrix(1.00, 0.00, -0.00, -1.00, 605.0, 156.3)">i</text><text xml:space="preserve" font-family="HelveticaNeue-Thin,Helvetica Neue" font-size="42.0" fill="#000000" transform="matrix(1.00, 0.00, -0.00, -1.00, 612.0, 156.3)">n</text><text xml:space="preserve" font-family="HelveticaNeue-Thin,Helvetica Neue" font-size="42.0" fill="#000000" transform="matrix(1.00, 0.00, -0.00, -1.00, 633.8, 156.3)">g</text><text xml:space="preserve" font-family="HelveticaNeue-Thin,Helvetica Neue" font-size="42.0" fill="#000000" transform="matrix(1.00, 0.00, -0.00, -1.00, 656.4, 156.3)"> </text><text xml:space="preserve" font-family="HelveticaNeue-Thin,Helvetica Neue" font-size="42.0" fill="#000000" transform="matrix(1.00, 0.00, -0.00, -1.00, 668.0, 156.3)">t</text><text xml:space="preserve" font-family="HelveticaNeue-Thin,Helvetica Neue" font-size="42.0" fill="#000000" transform="matrix(1.00, 0.00, -0.00, -1.00, 678.9, 156.3)">i</text><text xml:space="preserve" font-family="HelveticaNeue-Thin,Helvetica Neue" font-size="42.0" fill="#000000" transform="matrix(1.00, 0.00, -0.00, -1.00, 686.0, 156.3)">m</text><text xml:space="preserve" font-family="HelveticaNeue-Thin,Helvetica Neue" font-size="42.0" fill="#000000" transform="matrix(1.00, 0.00, -0.00, -1.00, 719.4, 156.3)">e</text></g></svg>