<?xml version="1.0" encoding="UTF-8" standalone="no"?><svg xmlns="http://www.w3.org/2000/svg" xmlns:xlink="http://www.w3.org/1999/xlink" clip-rule="evenodd" stroke-miterlimit="10" viewBox="0 0 1024 768"><desc>SVG generated by Keynote</desc><defs></defs><g transform="matrix(1.00, 0.00, -0.00, -1.00, 0.0, 768.0)"><path d="M 0.0 768.0 L 1024.0 768.0 L 1024.0 0.0 L 0.0 0.0 Z M 0.0 768.0 " fill="#000000"></path><text xml:space="preserve" font-family="HelveticaNeue-Thin,Helvetica Neue" font-size="67.2" fill="#FEFFFE" transform="matrix(1.00, 0.00, -0.00, -1.00, 205.1, 663.3)">t</text><text xml:space="preserve" font-family="HelveticaNeue-Thin,Helvetica Neue" font-size="67.2" fill="#FEFFFE" transform="matrix(1.00, 0.00, -0.00, -1.00, 221.6, 663.3)">e</text><text xml:space="preserve" font-family="HelveticaNeue-Thin,Helvetica Neue" font-size="67.2" fill="#FEFFFE" transform="matrix(1.00, 0.00, -0.00, -1.00, 256.5, 663.3)">s</text><text xml:space="preserve" font-family="HelveticaNeue-Thin,Helvetica Neue" font-size="67.2" fill="#FEFFFE" transform="matrix(1.00, 0.00, -0.00, -1.00, 288.8, 663.3)">t</text><text xml:space="preserve" font-family="HelveticaNeue-Thin,Helvetica Neue" font-size="67.2" fill="#FEFFFE" transform="matrix(1.00, 0.00, -0.00, -1.00, 306.2, 663.3)"> </text><text xml:space="preserve" font-family="HelveticaNeue-Thin,Helvetica Neue" font-size="67.2" fill="#FEFFFE" transform="matrix(1.00, 0.00, -0.00, -1.00, 324.9, 663.3)">d</text><text xml:space="preserve" font-family="HelveticaNeue-Thin,Helvetica Neue" font-size="67.2" fill="#FEFFFE" transform="matrix(1.00, 0.00, -0.00, -1.00, 362.2, 663.3)">i</text><text xml:space="preserve" font-family="HelveticaNeue-Thin,Helvetica Neue" font-size="67.2" fill="#FEFFFE" transform="matrix(1.00, 0.00, -0.00, -1.00, 373.5, 663.3)">ﬀ</text><text xml:space="preserve" font-family="HelveticaNeue-Thin,Helvetica Neue" font-size="67.2" fill="#FEFFFE" transform="matrix(1.00, 0.00, -0.00, -1.00, 403.6, 663.3)">e</text><text xml:space="preserve" font-family="HelveticaNeue-Thin,Helvetica Neue" font-size="67.2" fill="#FEFFFE" transform="matrix(1.00, 0.00, -0.00, -1.00, 438.5, 663.3)">r</text><text xml:space="preserve" font-family="HelveticaNeue-Thin,Helvetica Neue" font-size="67.2" fill="#FEFFFE" transform="matrix(1.00, 0.00, -0.00, -1.00, 456.4, 663.3)">e</text><text xml:space="preserve" font-family="HelveticaNeue-Thin,Helvetica Neue" font-size="67.2" fill="#FEFFFE" transform="matrix(1.00, 0.00, -0.00, -1.00, 491.3, 663.3)">n</text><text xml:space="preserve" font-family="HelveticaNeue-Thin,Helvetica Neue" font-size="67.2" fill="#FEFFFE" transform="matrix(1.00, 0.00, -0.00, -1.00, 526.1, 663.3)">t</text><text xml:space="preserve" font-family="HelveticaNeue-Thin,Helvetica Neue" font-size="67.2" fill="#FEFFFE" transform="matrix(1.00, 0.00, -0.00, -1.00, 543.6, 663.3)"> </text><text xml:space="preserve" font-family="HelveticaNeue-Thin,Helvetica Neue" font-size="67.2" fill="#FEFFFE" transform="matrix(1.00, 0.00, -0.00, -1.00, 562.2, 663.3)">v</text><text xml:space="preserve" font-family="HelveticaNeue-Thin,Helvetica Neue" font-size="67.2" fill="#FEFFFE" transform="matrix(1.00, 0.00, -0.00, -1.00, 592.1, 663.3)">a</text><text xml:space="preserve" font-family="HelveticaNeue-Thin,Helvetica Neue" font-size="67.2" fill="#FEFFFE" transform="matrix(1.00, 0.00, -0.00, -1.00, 625.7, 663.3)">l</text><text xml:space="preserve" font-family="HelveticaNeue-Thin,Helvetica Neue" font-size="67.2" fill="#FEFFFE" transform="matrix(1.00, 0.00, -0.00, -1.00, 637.0, 663.3)">i</text><text xml:space="preserve" font-family="HelveticaNeue-Thin,Helvetica Neue" font-size="67.2" fill="#FEFFFE" transform="matrix(1.00, 0.00, -0.00, -1.00, 648.2, 663.3)">d</text><text xml:space="preserve" font-family="HelveticaNeue-Thin,Helvetica Neue" font-size="67.2" fill="#FEFFFE" transform="matrix(1.00, 0.00, -0.00, -1.00, 685.6, 663.3)">a</text><text xml:space="preserve" font-family="HelveticaNeue-Thin,Helvetica Neue" font-size="67.2" fill="#FEFFFE" transform="matrix(1.00, 0.00, -0.00, -1.00, 719.2, 663.3)">t</text><text xml:space="preserve" font-family="HelveticaNeue-Thin,Helvetica Neue" font-size="67.2" fill="#FEFFFE" transform="matrix(1.00, 0.00, -0.00, -1.00, 736.6, 663.3)">i</text><text xml:space="preserve" font-family="HelveticaNeue-Thin,Helvetica Neue" font-size="67.2" fill="#FEFFFE" transform="matrix(1.00, 0.00, -0.00, -1.00, 747.9, 663.3)">o</text><text xml:space="preserve" font-family="HelveticaNeue-Thin,Helvetica Neue" font-size="67.2" fill="#FEFFFE" transform="matrix(1.00, 0.00, -0.00, -1.00, 784.0, 663.3)">n</text><text xml:space="preserve" font-family="HelveticaNeue-Thin,Helvetica Neue" font-size="67.2" fill="#FEFFFE" transform="matrix(1.00, 0.00, -0.00, -1.00, 818.9, 663.3)"> </text><text xml:space="preserve" font-family="HelveticaNeue-Thin,Helvetica Neue" font-size="67.2" fill="#FEFFFE" transform="matrix(1.00, 0.00, -0.00, -1.00, 367.0, 582.3)">m</text><text xml:space="preserve" font-family="HelveticaNeue-Thin,Helvetica Neue" font-size="67.2" fill="#FEFFFE" transform="matrix(1.00, 0.00, -0.00, -1.00, 420.5, 582.3)">e</text><text xml:space="preserve" font-family="HelveticaNeue-Thin,Helvetica Neue" font-size="67.2" fill="#FEFFFE" transform="matrix(1.00, 0.00, -0.00, -1.00, 455.4, 582.3)">s</text><text xml:space="preserve" font-family="HelveticaNeue-Thin,Helvetica Neue" font-size="67.2" fill="#FEFFFE" transform="matrix(1.00, 0.00, -0.00, -1.00, 487.7, 582.3)">s</text><text xml:space="preserve" font-family="HelveticaNeue-Thin,Helvetica Neue" font-size="67.2" fill="#FEFFFE" transform="matrix(1.00, 0.00, -0.00, -1.00, 520.1, 582.3)">a</text><text xml:space="preserve" font-family="HelveticaNeue-Thin,Helvetica Neue" font-size="67.2" fill="#FEFFFE" transform="matrix(1.00, 0.00, -0.00, -1.00, 553.7, 582.3)">g</text><text xml:space="preserve" font-family="HelveticaNeue-Thin,Helvetica Neue" font-size="67.2" fill="#FEFFFE" transform="matrix(1.00, 0.00, -0.00, -1.00, 589.8, 582.3)">e</text><text xml:space="preserve" font-family="HelveticaNeue-Thin,Helvetica Neue" font-size="67.2" fill="#FEFFFE" transform="matrix(1.00, 0.00, -0.00, -1.00, 624.6, 582.3)">s</text><image xlink:href="../../FFF5A458-F19A-4037-B21D-61139B876840/assets/36F516965578E33446462FAED820E4D0.png" width="1114.00" height="710.00" transform="matrix(0.59, 0.00, -0.00, -0.59, 185.1, 513.7)"></image></g></svg>